<?xml version="1.0" encoding="utf-8"?>
<!-- Generator: Adobe Illustrator 21.1.0, SVG Export Plug-In . SVG Version: 6.00 Build 0)  -->
<svg version="1.1" id="Ebene_1" xmlns="http://www.w3.org/2000/svg" xmlns:xlink="http://www.w3.org/1999/xlink" x="0px" y="0px"
	 viewBox="0 0 612 792" style="enable-background:new 0 0 612 792;" xml:space="preserve">
<style type="text/css">
	.st0{fill:none;stroke:#000000;stroke-width:0.5;stroke-linecap:round;stroke-linejoin:round;stroke-miterlimit:10;}
	.st1{fill:#B26C24;stroke:#000000;stroke-width:0.5;stroke-linecap:round;stroke-linejoin:round;stroke-miterlimit:10;}
	.st2{fill:#8CFF4D;stroke:#000000;stroke-width:0.5;stroke-linecap:round;stroke-linejoin:round;stroke-miterlimit:10;}
	.st3{fill:#FFFFFF;stroke:#000000;stroke-miterlimit:10;}
	.st4{fill:#C28950;stroke:#000000;stroke-width:0.5;stroke-linecap:round;stroke-linejoin:round;stroke-miterlimit:10;}
	.st5{font-family:'MyriadPro-Regular';}
	.st6{font-size:12px;}
	.st7{font-size:10px;}
	.st8{font-size:9px;}
	.st9{fill:#50FFFF;stroke:#000000;stroke-width:0.5;stroke-linecap:round;stroke-linejoin:round;stroke-miterlimit:10;}
	.st10{fill:#BF60A1;stroke:#000000;stroke-width:0.5;stroke-linecap:round;stroke-linejoin:round;stroke-miterlimit:10;}
	.st11{fill:#FF0013;stroke:#000000;stroke-width:0.5;stroke-linecap:round;stroke-linejoin:round;stroke-miterlimit:10;}
	.st12{fill:#FFFA50;stroke:#000000;stroke-width:0.5;stroke-linecap:round;stroke-linejoin:round;stroke-miterlimit:10;}
</style>
<g>
	<path class="st0" d="M243.5,296.4c0.6,1,1.6,1.8,2.4,2.6c7.9,7.9,15.7,15.8,23.4,24c-5,5.7-7.7,12.5-8.6,19.7
		c-1.1,8.7,0.5,17.3,5.2,24.9c6.3,10.4,15.9,16.3,27.6,19.2c6.1,1.5,12.3,2.2,18.5,1.4c15-2.1,27.9-8,35.5-22
		c3.4-6.3,4.8-13.1,4.4-20.4c-0.4-8.4-3.6-15.7-8.6-22.5c2.9-2.9,5.8-5.8,8.7-8.7c5.7-5.5,11.4-10.8,17-16.4
		c1.2-1.2,2.5-1.7,4.1-1.6c3.8,0,7.5,0,11.5,0c0-2.6,0-2.6,0-2.6"/>
	<path class="st0" d="M334,367.9c-2.6-0.7-5.3,0.3-7.9-0.2c-0.5-0.1-1.4,0.3-1.2,1.4c0.2,1.1,0.1,2.2,0,3.4c0,1.4,0.6,1.7,1.9,1.7
		c2.5-0.1,5,0,7.7,0c0-2.6,0-5,0-7.4c0-0.9,0.3-1.7,0.8-2.4c9.5-11.8,6.6-29.7-5.5-38.4c-8.1-5.8-17.2-8.1-26.9-7.1
		c-9.7,1.1-18.6,4.7-24.9,12.6c-3,3.8-4.8,8.2-5.3,13.2c-1.5,14.7,7.4,24.7,18.5,28.8c5.9,2.2,12,3.3,18.2,2.8
		c4.9-0.4,9.7-1.7,14.2-3.8"/>
	<path class="st0" d="M364.9,26.4c7.4,7.9,13,16.8,16.8,26.9c3.4,9.1,5.1,18.6,5.2,28.3c0,1.4,0.7,1.9,1.7,2.4
		c8.1,4.2,15.6,9.2,22.6,15c6.6,5.5,12.3,11.7,17.7,18.3c5.6,6.8,10.4,14.2,14.4,22.1c3,5.9,5.5,12.1,7.3,18.7
		c-2-0.1-0.4,3.1-2.7,3.1"/>
	<path class="st0" d="M128.9,278.9"/>
	<path class="st0" d="M195.7,289.9"/>
	<path class="st0" d="M195.7,289.9c-1.1-0.5-1.9,0.6-1.9,1.7c0,4.6,0,9.1,0,13.7c0,1.8,0,3.5,0,5.6c-12.2-0.4-24.2-0.3-36.5-0.3
		c0-2.5,0-5,0-7.4c0-3.9,0-8-0.2-11.8c-0.1-2.2-1.4-1.6-1.4-1.6"/>
	<path class="st1" d="M192.6,262.5c-2,0.1-29-0.1-31.7-0.2c-8.6-0.2-17.3-0.6-25.9-0.5c-1.6,0-3.3,2-3.4,3.6c0,2.8,0,5.6,0,8.4
		c0,1.1-0.1,2.1-1.7,2c-1.2-0.1-1.3,1-1.2,1.9l0.1,1.2c0,0,0,0,7.6,0c0,4.4-0.1,8.7,0.9,13c0.3,1.5,0.6,2.2,2.2,2.2
		c2.5-0.1,5,0,7.4,0c2.5,0,3.5-1,3.8-3.3c1.6-0.2,3.3,0.2,4.9-0.9c0,0-1.9-2.8-0.6-4.4c1.4-1.8,25.9-0.2,37.5,0.2
		c4.4-0.1,4.5,0.3,3.4,3.4l-0.2,1h2l0.5,1.7c0.4,1.4,1.3,0.9,2,0.9c4,0.2,8,0.1,12,0.2c5.2,0.1,10.4,0.6,15.9,0.2
		c-0.5-1.9,0.3-2.7,2.3-2.2c0-10.3,0-20.2,0-30c-1.3-0.5-2.5-0.3-3.6-0.4c-2.9-0.2-5.9,0.7-8.5-1.8c-0.8-0.8-0.8-1.3-0.8-2
		c0-6,0.1-12,0.2-18c0.1-8,0-16,0-23.7c0.7-0.8,1.7-0.1,1.9-0.8c0.7-2.1,2.2-1.3,3.6-1.2c2.5,0.1,5,0,7.6,0c0-5,0-9.8,0-14.9
		c-3.1,0-6-0.1-9,0c-1.5,0-2.1-0.5-1.9-1.9c0.3-3.2,0.4-6.5,1-9.6c2.3-11.4,7.1-21.7,14.8-30.5c7.4-8.3,16.3-14.7,26.9-18.5l1.4-0.6
		v-0.9l-0.9,0c-1.4,0-0.9-1-0.9-1.7c0-2.6-0.1-5.3,0-7.9c0-0.9-0.1-1.9-0.6-2.4c-2.7-2.7-4.8-5.9-7.4-8.9c-1.8,1.6-4.1,2.1-5.9,3.7
		c0.6,2.3,2.1,4.2,3.4,6.8c-5.9,3.2-11.8,6.3-17,10.6c-5.7,4.6-10.6,10-15.1,15.8c-2.9-1.6-5.3-3.5-8.2-4.7l-3.4,5l8.1,5.3
		c-7.4,12.5-11,25.8-11.3,39.8c-1.6,0.9-3.2,0-4.7,0.7v10.1c1.5,0.5,3.1,0.1,4.6,0.3c0,14.5,0,28.8,0,43.4
		c-3.4,3.2-6.9,6.5-10.3,9.9C193.9,262.5,193.3,262.5,192.6,262.5"/>
	<path class="st0" d="M272,133.4c-1.8,0.5-6.4,1.8-8,2.6"/>
	<path class="st2" d="M283.1,497c-5.1-0.5-10.2-0.2-15.4-0.2c-5.3,0-10.6-0.1-15.8-1.3c-1.2-0.3-1.4,0.1-1.4,1c0,3.1,0,6.2,0,9.4
		c0,0.7,0.1,1.1,1,1.3c0.4,0.1,0.8,0.2,1.2,0.2c13.3,0,26.6,0,39.8,0c0.3,0,0.6-0.2,1.1-0.3c0-3.2,0-6.5,0-10
		c-3.5-0.2-6.9,0.1-10.2-0.3"/>
	<path class="st2" d="M358.7,496.8c-14.1,1-28.2,0.2-42.4,0.6c0,3.4,0,6.7,0,10.1c14.2,0.5,28.3,0.3,42.6,0.4
		c0-3.6-0.1-7.2,0.2-10.8"/>
	<path class="st0" d="M208.2,152.4c-1.3,0.9-2.1,2-2.6,3.1c-1.8,4.2-4.2,8.3-5.6,12.7c-1.4,4.6-2.9,9.2-3.8,13.9
		c-0.9,4.4-1.1,8.9-1.2,13.4v12.7l0.1,9l9.7,0.2"/>
	<path class="st0" d="M183.5,271.8"/>
	<path class="st2" d="M359.2,484.3c0.4-2.9,0.4-3-2.2-2.4c-5.2,1.4-10.5,1.6-15.8,1.5c-7.5-0.2-15,0-22.6-0.1
		c-1.6,0-2.3,0.5-2.2,2.2c0.1,2.6,0,5.1,0,7.7c0.8,0.4,1.6,0.2,2.4,0.2c9.6,0,19.2,0,28.8,0c3.8,0,7.6-0.6,11.5-1.6
		c0-2.5,0-4.9,0-7.3"/>
	<path class="st2" d="M250.2,559.4c0.5,0.3,1.1,0.2,1.7,0.2c10.8,0.1,21.6,0.2,32.4,0.2c3,0,6.1,0,9.2,0c0-3.3,0-6.3,0-9.6
		c-14.4-0.6-28.6-0.1-43-0.3c-0.2,3.1,0.1,6.1-0.3,9.2"/>
	<path class="st3" d="M274.4,586.3c6.2,0.6,12.5,0.1,19,0.3c0-3.3,0-6.3,0-9.8c-14.1-0.7-28.4-0.1-43-0.4c0.3,3.3-0.4,6.4-0.1,9.9
		c2.4,0,4.6,0,6.9,0c5,0,10.1,0,15.1,0c0.6,0,1.3,0.1,1.9,0.2"/>
	<path class="st0" d="M286,742.3c4.9-2.4,14.5,1.5,17.2,8.2c0.3,0.7,0.7,1.6,1.7,1.9"/>
	<path class="st2" d="M333,480.2c3.8,0.4,7.7,0.3,11.5,0c4.4-0.4,8.5-1.4,12.7-2.6c1.6-0.5,2.3-1.2,2.2-2.9c-0.1-2.8,0-5.6,0-8.6
		c-3.4,1.1-6.4,2.4-9.6,3.1c-3.3,0.7-6.7,1.2-10.1,1.2c-7,0-13.9,0-20.9,0c-0.8,0-1.6-0.3-2.5,0.5c0,2.9,0,6,0,9.6
		c5.6,0,11,0,16.4,0"/>
	<path class="st2" d="M293.9,453.8c0.6-3.2,0-6.4,0.3-10c-15.3,1-30-0.3-42.9-10.1c-0.6,2.5-0.3,4.6-0.3,6.7c0,5.2-0.1,5.4,4.6,7.4
		c6,2.6,12.1,4.7,18.7,5.4c6.5,0.7,12.9,1.2,19.4,0.7"/>
	<path class="st0" d="M477.4,445.4"/>
	<path class="st0" d="M477.4,445"/>
	<path class="st2" d="M395.6,325.2c2.7,0,5.4,0,8.2,0c1.1,0,1.7,0.1,2.2,1.4c2.3,5.1,3.5,10.5,4.7,15.9c1.4,6.7,1.9,13.5,1.7,20.4
		c-0.3,11.3-2.6,22.1-6.7,32.6c-0.6,1.4-1.2,2.1-2.9,2c-2.8-0.2-5.6-0.1-8.5-0.1c0.5-2.5,1.8-4.4,2.6-6.4c3.4-8.3,5.2-17,5.7-25.9
		c0.3-5.5,0.1-10.9-0.6-16.3c-1-7.6-3.2-15-6.4-22.1c-0.2-0.3-0.2-0.6-0.2-1"/>
	<path class="st2" d="M202.9,324c-2.6-0.6-5.3,0-7.9-0.3c-2.7,7.3-4.5,14.7-5.6,22.4c-0.9,6.2-1,12.5-0.8,18.7
		c0.2,7.6,1.4,15.2,3.6,22.6c0.7,2.4,1.5,4.8,2.1,7.2c0.4,1.4,1.1,1.8,2.4,1.7c2.1-0.1,4.2,0,6.5,0c-2.4-6.1-4.1-12.1-5.3-18.2
		c-1.6-8.7-2.3-17.4-1.4-26.2c0.9-9.3,2.9-18.4,6.4-27.1c0.1-0.1,0-0.3,0-0.5"/>
	<path class="st0" d="M293.4,340.3c-0.5,0.1-1.5-0.4-1.4,0.7c0.1,4.5-0.6,9-0.1,13.4c0.9,0.4,1.7,0.3,2.5,0.3c7.5,0,15,0,22.6,0
		c1,0,2.2,0.9,3.1,0c1-1,0.5-2.4,0.5-3.6c0.1-3.5,0-7,0-10.5c-1.2-0.5-2.2-0.3-3.1-0.3c-6.1,0-12.2,0.1-18.2-0.3
		c-1.9-0.1-3.7,0.7-5.5,0"/>
	<path class="st0" d="M259.3,165.4c-1,0.9-1.9,1.7-2.9,2.6c1.5,1.5,2.5,3.4,4.3,4.7c1.1-0.9,2.1-1.7,3.2-2.5c1-0.1,1.3,0.9,1.9,1.5
		c2.8-3,7-4.5,8.6-8.4c1.1-0.4,0.8,1.1,2.1,0.8c1.8-1.5,4-3.1,6-5c1.5-1.4,3.1-2,5.3-2c6-0.1,12-0.1,18-0.1c4.7,0,9.4,0.3,14.2,0.4
		c2.6,0.1,5.1-0.1,7.7-0.2c1.4-0.1,2.7,0.1,3.9,1.2c1.4,1.4,2.9,2.8,4.6,3.8c1,0.6,1.8,2.5,3.6,1.3c0.4-0.2,0.8,0.1,0.9,0.5
		c1.3,3.2,4.6,4.2,6.8,6.4c0.9,0.9,2,1.3,2.8-0.3c1.3,1,2.6,2,3.9,3c1.4-1.7,2.8-3.4,4.2-5c-0.8-0.7-1.5-1.4-2.3-2
		c-0.8-0.6-1.8-0.9-1-2.2c0.5-0.7-0.4-0.9-0.7-1.2c-2.5-2.1-4.7-4.5-7.7-6c-0.3-0.2-1-0.6-0.9-0.7c1.3-2.8-1.6-3.2-2.8-4.3
		c-3.5-3.2-7.3-6.2-11-9.2c-1.8-1.4-3.7-2.7-2.7-5.6c-14.8,0-29.2,0-43.8,0c0.8,3-1.3,4.5-3.3,6.1c-4.3,3.4-8.4,7.1-12.8,10.5
		c-1.1,0.8-0.6,1.4-0.4,2.2"/>
	<path class="st0" d="M313.8,6.5c-4.3-0.3-8.6-0.5-13,0.1c-1.3,0.2-2.9,0.1-4.4-0.3c-0.4-1,0-2-0.3-3.2c-3.6,0.3-6.9,1-10.2,2
		c-10,3-18.9,7.9-27.2,14.2c-7.9,6-13.8,13.4-18.9,21.7c-3.9,6.4-6.7,13.1-8.5,20.4c-1.6,6.4-2.6,12.8-2.3,19.5
		c0.1,1.6-0.4,2.5-1.9,3.2c-10.8,5-20.6,11.7-29.3,19.8c-4.9,4.6-9.7,9.2-13.7,14.6c-0.6,0.8-0.7,1.7-1.4,2.4"/>
	<path class="st2" d="M419.9,325.4c2.2,3.9,2.8,8.2,3.8,12.5c2.1,9.1,2.8,18.3,2.4,27.6c-0.3,6.1-1,12.1-2.4,18
		c-1,4.2-2.1,8.5-3.8,12.5c-0.3,0.7-0.3,1.4-1.3,1.4c-3.4,0-6.7,0-10.3,0c9.4-24,9.7-47.8,0.6-72.2c3.7,0,7.2,0,10.6,0"/>
	<path class="st2" d="M251.2,461c5.5,2.8,11.4,4.4,17.5,5.3c8.4,1.2,16.8,0.5,25.4,0.7c0-3.1,0-5.9,0-8.7c0-1.5-0.9-1.4-1.9-1.4
		c-3.5,0-7,0-10.6,0c-8,0-15.8-0.8-23.3-3.9c-2.4-1-4.8-2.3-7.3-3.4c-0.5,3.8-0.3,7.5-0.4,11.1"/>
	<path class="st3" d="M270.6,616.1c-6.2-0.5-12.3-0.1-18.5-0.2c-0.9,0-1.4,0.3-1,1.4c0.6,1.7,0.9,3.5,1.4,5.5
		c13.5-0.3,26.9,0.5,40.5,0.1c0-2.3,0-4.4,0-7.1c-7.5,0-14.8,0-22.2,0"/>
	<path class="st2" d="M293.2,564c-0.8-0.7-1.7-0.5-2.6-0.5c-13.3,0-26.6,0-40,0c-0.4,3,0.2,6.1-0.5,9.6c14.4,0,28.6-0.1,43.1,0.4
		c0-3.2,0-6.2,0-9.2"/>
	<path class="st2" d="M221.2,323.3c-3.3,5.6-5.2,11.7-6.8,18c-1.7,6.7-2.4,13.5-2.3,20.4c0.1,7.3,1.3,14.6,3.4,21.6
		c1.1,3.8,2.6,7.5,4.2,11.1c0.3,0.6,0.7,0.9,1,1.4c2.8-1.5,5.8-2.4,8.5-4.5c-9.7-21.1-9.7-42.2,0.4-63.4c-2.7-1.5-5.3-3.2-8.3-4.4"
		/>
	<path class="st1" d="M456.8,381.8c-0.5,4.6-0.1,9.1-0.3,13.9c1.8-0.1,3.8-0.9,4.1,1.7c1.9-0.1,3,1.9,5,1.8c2.9-0.3,5.9-0.1,9.1-0.1
		c0-1.3,0-2.3,0-3.4c0-0.6-0.2-1.1,0.2-1.7c1.8-2.8,1.7-8.2,0-11c-0.7-1.3,0-2.9-0.4-4.3c-3.2-1.2-6.3-0.1-9.5-0.4
		c-1.6-0.1-3.4,1.3-4.5,2.7c-1,1.3-2.4,0.4-3.6,0.7"/>
	<path class="st2" d="M216.4,324.2c-1.1,3.8-2.8,7.3-3.9,11c-1.6,5.3-2.6,10.6-3.3,16.1c-0.5,4.3-0.4,8.5-0.4,12.7
		c0.1,6.4,1.2,12.6,2.9,18.7c1.2,4.5,3,8.9,5,13.5c-3.2,0-6.2-0.1-9.2,0c-1.1,0-1.2-0.7-1.4-1.2c-2.3-5.7-3.9-11.7-5.1-17.7
		c-1.1-5.7-1.5-11.3-1.6-17.1c-0.1-6.9,0.7-13.9,2.2-20.6c1-4.4,2.4-8.7,4-13c0.7-1.9,1.5-3.4,3.9-3.1c2.3,0.3,4.7-0.4,7,0.5"/>
	<path class="st2" d="M390.8,396.2c3.7-7,6.2-14.5,7.5-22.3c1.1-6.8,1.5-13.6,0.9-20.4c-0.8-8.3-2.5-16.4-6.2-24
		c-0.5-1-0.6-2.2-1.2-3.1c-0.3-0.3-0.4-0.9-1.1-1c-2,1-4.1,2.2-6.3,3.1c-1.6,0.7-1.7,1.6-1,2.9c3.1,5.7,4.7,11.9,5.7,18.2
		c1,6.5,1,13.1,0.2,19.7c-0.9,7.9-3.5,15.1-6.6,22.3c-0.1,0.3-0.5,0.3-0.4,1c2.5,1.5,5.3,2.8,8.1,4.1"/>
	<path class="st3" d="M250.9,602.6c0.8,0.5,1.6,0.2,2.4,0.2c12.5,0,25,0,37.4,0c0.8,0,1.6,0,2.7,0c-0.5,3.4-0.2,6.6-0.4,10.2
		c-14.5-0.5-28.8-0.7-43.2-0.5c-0.4-3.3,0.1-6.4,0.1-9.4c0-0.2,0.3-0.5,0.7-0.5"/>
	<path class="st0" d="M329.2,117.4c0-9,0-17.9,0-27C314.6,90,300.3,90.6,286,90"/>
	<path class="st2" d="M318.4,573.6c13.4,0,26.9,0,40.3,0c0.5-3.3,0.2-6.3,0.3-9.6c-14.4-0.4-28.6-0.8-42.7-0.3
		c-1.1,2.9-0.3,5.6-0.5,8.2c-0.1,1.6,1.2,1.6,2.4,1.4"/>
	<path class="st0" d="M512.8,349.2c1.7,0.2,0.3,0,1.7,0.2c4.1,0.9,4.1,0.9,4.1,5.3c0,6.7,0,13.4,0,20.2c0,2.6,0,2.6-2.6,2.6
		c-1.5,0-2.8,0.7-4.3,0.5c-0.8-0.1-1.3,0.6-1.2,1.4c0.3,3.7-1.3,7.3-1.1,11c0.1,2.3,1.5,4.3,1.2,6.7c-0.3,2.1-0.1,4.3-0.1,6.5
		c2,1.1,3.9,0.6,5.8,0.7c2-0.1,1.7,0.7,1.7,0.7c0,4.9,0,9.8,0,14.6"/>
	<path class="st0" d="M509.9,348"/>
	<path class="st0" d="M361.8,49c-4,1.8-8,3.7-12,5.5c-1,0.4-1.2,0.9-0.7,1.9c1.2,2.6,2.2,5.3,3.2,7.9c1.1,2.5,1.2,5.2,1.7,7.7
		c0.4,1.7,0.4,3.6,1.1,5.3c0.9,2.4-0.1,4.8,0,7.2c0,1.6,0.1,3.2,0,4.8c-0.2,1.9,0.7,2.5,2.4,2.4c3.9-0.2,7.8,0.5,11.8,0.7"/>
	<path class="st0" d="M148.4,226.6c-3-1-6.1,0-9.1-0.7c-1.4-0.3-2.9,0.1-4.3,0c-2.8-0.1-5.5-0.5-8.2-1.6c-5.9-2.5-12-1.9-17.7,1.1
		c-0.7,0.3-1.4,0.7-1.7,1.4c4.7,5.2,10.1,9.7,14.4,15.1c0.5,0.7,1.2,0.6,1.9,0.7c4.6,0.8,9.3,0.1,13.9,0.7"/>
	<path class="st2" d="M293.2,547.2c1.1-3.4,0.1-6.9,0.6-10.4c-14.6,0-28.8,0-43.3,0c0,3.4,0,6.7,0,10.4c14,0,28.2,0,42.5,0"/>
	<path class="st0" d="M522.1,244.6c-1-1.7-2.7-1.5-4.3-1.4c-1.2,0.1-1.7-0.3-1.9-1.5c-1.7-7.6-6.4-12.9-13.4-15.8
		c-6.1-2.4-12.4-2.3-18.5,0.8c-2.1,1.1-2.8,2.4-2.2,5.5c0.6,3,0.6,6,0,9c-0.6,2.7,0.6,3.4,2,3.3c1.5-0.2,3.1-0.1,4.6-0.2
		c5.8-0.5,11.5-1.3,13.4,1.1l0.4,1.2c0,0.5-0.4,0.9-0.9,0.9c-5.2-0.2-19.3-0.2-22.7-0.1c-5.9,0.2-11.8,0.1-17.8,0.3
		c-3.9,0.1-7.8,0-11.7,0c-0.2-0.5-0.3-0.7-0.3-1c0-5.8-0.1-11.5,0-17.3c0.2-6.3,3.6-9.9,8.8-11.3"/>
	<path class="st3" d="M341.6,623.3c4.7,0.4,9.4,0.2,14.1,0.3c0.5-2.3,1.4-4.3,1.6-6.9c-13.8,0-27.6,0-41.6,0c0.2,2-0.3,4-0.2,6.6
		c3.4,0,6.8,0,10.3,0c4.3,0,8.6,0,13,0c0.9,0,1.8-0.1,2.6,0.2"/>
	<path class="st0" d="M154.7,613.9c0.6,2.3,2.9,0.5,4.1,1.6c0.3,0.3,1.3,0,2.2,0c-0.2,3.5,0.4,6.8,0.4,10.1c0.1,13.7,0,27.4,0.1,41
		c0,3.3,0,6.6,0,9.8c0,1,0.4,1.8,0.7,2.6"/>
	<path class="st0" d="M289.8,186.2c-0.9,4.2-0.2,8.5-0.6,12.8c12.2,0,24,0,36.1,0c0-4.4,0-8.6,0-12.8"/>
	<path class="st0" d="M412.7,167.5c1.2,4.7,2.8,9.2,3.9,13.9c0.4,1.8,0.6,3.7,0.8,5.5c1.4,10.7,1,21.4,1,32.4c-3,0-6.1,0-9.1,0"/>
	<path class="st1" d="M136.2,393.4c0,2.6-0.2,2.8,2.4,2.9c2.6,0.1,5.1-0.2,7.7,0.2c1.3,0.2,2.6-1.4,2.7-1.9c0.6-2.1,2-1.6,3.3-1.6
		c0.4,0,0.9,0.2,1.3-0.4c0-4.3,0-8.8,0-13.3c-0.9-0.4-1.7-0.2-2.5-0.2c-0.8,0-1.4-0.1-1.7-1c-0.7-2.2-2.4-2.9-4.6-2.9
		c-2.7,0.1-5.4,0-8.4,0c0,1.3,0,2.5,0,3.6c0,0.6,0.2,1.3-0.3,1.7c-0.7,0.5-1.5,0.6-1.5,1.9c-0.1,2.5-0.1,5-0.2,7.4
		c0,0.4,0.3,0.6,0.7,0.7C136.9,391,136.1,392.3,136.2,393.4"/>
	<path class="st0" d="M375,113.5c-1-0.6-1.9-1.2-3-1.8c1.8-3.3,3.6-6.7,5.6-10.3c-2.2-1.7-4.7-2.8-7-4.2c-1.2-0.7-1.6-1.4-1.4-2.5
		c1.5-5.6,1.5-11.3,1.4-17c-0.2-10.1-3.3-19.3-8.1-28.1c-4.3-8-10.3-14.5-17.3-19.7c-7.4-5.5-15.9-9.4-25.3-11.1
		c-6.7-1.2-13.5-1.7-20.2-0.8c-9.9,1.4-19.3,4.7-27.6,10.5c-11.1,7.7-19,18-23.9,30.5c-2.1,5.4-2.9,11.2-3.6,17
		c-0.7,6.1,0.4,11.9,1.1,17.8c0.1,0.5,0.8,0.6,0.2,1.7c-2.6,1.2-5.2,3.5-8.6,4.3"/>
	<path class="st1" d="M458.3,292.1c1.4,0.3,2.9,0.9,4.4,0.7c-0.5,1.5-0.4,2.1,1.1,2.8c3.6,1.5,7.2,0.9,11.1,1.2c0-1.7,0-3.2,0-4.6
		c0-0.6-0.2-1.4,0.7-1.4c1.7,0.1,1.2-1.1,1.2-2c0-2.6,0-5.3,0-8.2c1.8,0.1,3.5,0.1,5.1,0.5c1,0.3,1,0.3,1,0.3
		c-0.4-1.4,0.3-2.6-1-3.7c-1-0.9-0.8-2.6-0.5-4c0.3-1.7,0.2-3.4,0.2-5c-0.1-2.4-2.1-4.3-4.5-4.3l-34.8,0c-3.6-0.2-16.9-0.4-20.9-0.5
		c-1,0-1.9-0.1-2.7-0.9c-2.9-3.1-5.8-6.2-8.9-9.1c-0.9-0.9-1.2-1.8-1.2-2.9c0-3.8,0.1-7.7,0.2-11.5c0.1-6-0.1-12,0.1-18
		c0.1-3.8,0.2-7.5,0.2-11.4c1.8,0,3.4,0,5.3,0c0-1.1,0-2.2,0-3.2c0-1,0-2.1,0-3.1c0-4.5,0-4.5-4.3-4.6c-0.3,0-0.6,0.1-0.9-0.7
		c-0.2-13.6-3.3-26.9-10.1-39.3c1.8-1.4,3.7-2.1,5.2-3.6c-1.1-1.8-2-3.7-3.5-5.2c-1.8,0.7-3.3,1.8-5.1,3
		c-8.2-12.1-19-21.3-32.4-27.8c1.4-1.4,2.7-1.9,2.9-3.9c0.1-0.6-0.7-1.1-0.7-1.1c-1.8-1.5-3.7-2.4-5.6-3.7c-1.8,2.6-3.6,4.8-5.6,6.9
		c-1,1-1.2,2.1-1.2,3.4c0.1,3,0,5.9,0,8.8c-1.1,0.2-2.6-0.5-2.3,1.4c27,8.9,44.3,37.1,42.4,61.5c-3.2,0-6.4,0-9.7,0
		c0,4.8,0,9.6,0,14.6c2.2,0,4.3,0,6.4,0c1.5,0,3.3-0.6,3.9,1.7c0.2,0.6,1.2,0,1.6,0.5c0,14.4,0,28.8,0,43.2
		c-0.9,0.2-1.5,0.3-2.1,0.5c-0.2,0.8-0.3,1.6-0.5,2.4c-2.3-0.6-4.6,0.1-6.9,0c-2.5-0.2-2.9,0.1-2.9,2.4c0,8.4,0,16.8,0,25.2
		c0,1-0.8,2.6,1.4,2.4c0.4,0,0.5,0.7,0.5,1.2l0,1.2c0,0,0,0,0.4,0c8.9-0.2,17.8,0.6,26.6,0.5c2.3,0,2.9-2.5,4.8-2.7
		c0,0,0.1-0.6,0-0.9c-0.6-1.2-0.1-2.3,0.2-3.3c0.4-0.1,0.7-0.3,1-0.3c12.8,0,25.6,0,38.4,0c1.4,0,2,0.5,1.9,1.9
		c-0.1,0.8,0.1,1.6-0.2,2.4C458.3,292.1,458.3,292.1,458.3,292.1z"/>
	<path class="st0" d="M454.9,297.8c-0.5,0.3-0.8-0.3-1.4-0.3c-3.9,0.2-7.9,0.1-11.8-0.1c-7-0.2-14.1,0.2-21.1-0.3
		c-1.2-0.1-1.6,0.2-1.7,1.2c-0.1,4.6,0,9.3,0,14c12.3,0,24.4,0,36.4,0c0.2-6.8-0.2-13.6,0.3-20.5c2.1-0.3,2.1-0.3,2.1-0.3"/>
	<path class="st2" d="M359.2,434.9c-12.9,8.5-27.3,10-42.4,8.9c-0.1,3.3,0.1,6.4-0.4,9.9c7.2-0.4,14.1,0.4,21-0.5
		c7.1-1,13.8-3,20.2-6.2c1.5-0.7,2-1.4,1.9-3c-0.1-3,0-5.9,0.2-8.9"/>
	<path class="st0" d="M421.4,444.8"/>
	<line class="st0" x1="450.9" y1="449.7" x2="450.9" y2="445.4"/>
	<path class="st0" d="M416.5,495.1c8.7,0,17.4,0.3,26.2,0.5c6.6,0.1,13.1,0.1,19.7-0.3c45.1-0.8,45.1-0.8,45.1-0.8
		c2.3,0.2,2.5-0.9,2.4-2.7c0-2.6-0.2-5.3,0.1-7.8c2.3-0.7,4.6-0.5,6.8-0.6c2-0.2,3.7-1,5.5-1.4"/>
	<path class="st0" d="M418.9,554.4c4.3,0.6,9.2-1.8,12-5.2c2.4-3.1,3.5-6.6,3.8-10.3"/>
	<path class="st2" d="M278.5,523.7c5,0,9.9,0,15,0c0,3.1,0,6.2,0,9.6c-14.4-0.1-28.6,0.2-43-0.3c0-3.3,0-6.4,0-9.8
		c4.4,0,8.8-0.2,13.1,0c4.9,0.3,9.8,0.1,14.6,0.2"/>
	<path class="st0" d="M496.7,281c-4.2,0.5-9.7,0.1-13.8,0.3"/>
	<path class="st0" d="M327.2,177.6c0,2.4,0,4.8,0,7.3c-13.4,0-26.5,0-39.8,0c0-2.4,0-4.6,0-6.8"/>
	<path class="st3" d="M288.4,590.2c-0.3-0.4-0.8-0.2-1.2-0.2c-11.7,0-23.4,0-35,0c-0.6,0-1.3-0.4-2,0.7c0,2.5,0,5.5,0,8.6
		c14.4,0.6,28.8,0.2,43.2,0.3c0-3.2,0-6.2,0-9.4c-1.7,0.2-3.1-0.2-4.7-0.2"/>
	<path class="st2" d="M329.4,511.2c9.8,0,19.5,0,29.4,0c0,3.4,0,6.5,0,9.9c-14.2-0.4-28.3-0.3-42.5-0.3c0-3.4,0-6.5,0-9.8
		c4.4,0,8.6,0,12.8,0"/>
	<path class="st2" d="M359.2,450.5c0.5,3.7,0.1,7.4,0.2,11c0,0.8-0.5,1-1.2,1.2c-7.6,3-15.3,4.9-23.5,4.8c-5.5-0.1-11,0.2-16.6-0.1
		c-1-0.1-1.6-0.1-1.6-1.1c0-3.1-0.3-6.3,0.2-9.4c4.7,0,9.2-0.1,13.7,0c10.1,0.4,19.7-1.6,28.6-6.5"/>
	<path class="st2" d="M250.7,480.7c-0.5,2.8-0.1,5.6-0.3,8.4c-0.1,1.5,1.2,1.7,1.9,1.9c4.6,1.1,9.2,2,13.9,2
		c8.2,0,16.3,0.1,24.5,0.2c0.9,0,1.8,0.1,2.8-0.3c0.5-3-0.3-6.2,0.3-9.2c-0.5-0.8-1.3-0.5-1.9-0.5c-7.3,0-14.6-0.1-21.8,0
		c-6.5,0.2-12.8-0.6-19-2.7"/>
	<path class="st0" d="M192.1,522.5"/>
	<path class="st0" d="M366.1,121.4c1.9,2.1,5.2,3.5,7.7,4.7c1.9,0.9,3.1-0.1,3.3-2.6c0.2-2.5,0.3-5.1-1.1-7.4
		c-0.5-0.8-1-1.6-0.6-2.9c3,0.2,6.1,0,8.7-2.3c1.2-1,2.4-1.9,2.9-3.5c-2.9-2.5-6.5-3.9-9.5-6.2"/>
	<path class="st0" d="M88,416.6c-0.6,5.3-0.1,10.6-0.2,15.8c0,1,0,2.1,0,3.1c0,3.6,0,3.6-3.4,4.1c-0.6,21.9-0.7,43.8-0.6,65.8
		c2.8,0.4,5.3,0.2,7.9,0.2c4.2,0,8.3,0.1,12.5,0c1.9,0,3.7,0.7,5.8,0.4c2-0.3,3.8-0.6,5.3-2c1-1,2.1-1.1,3.6-1
		c3.4,0.3,6.9,0.1,10.3,0.1c0.7,0,1.4,0,2.2,0.2c2.1,0.6,2.7,0.2,2.8-1.9c0.1-2.3,0-4.6,0-7c0-1.2-0.5-1.7-1.7-1.7
		c-0.8,0-1.6,0-2.3-0.9"/>
	<path class="st0" d="M200.1,199.9"/>
	<path class="st0" d="M390.8,720.5"/>
	<path class="st0" d="M246.6,90.7c3.4,0.3,6.7-0.9,10.1-0.4c0-5.2-0.3-9.9,0.1-14.5c0.6-7.1,2.9-13.8,6.2-20.2
		c1.3-2.4,1.3-2.5-1.2-3.6c-2.4-1.1-4.8-2.2-7.2-3.4"/>
	<path class="st2" d="M250.7,465.8c-0.6,3.2,0,6.4-0.3,9.7c6,2.5,12.3,3.7,18.8,4c6.9,0.3,13.8-0.1,20.6,0.4
		c1.3,0.1,2.7,0.3,4.1-0.2c0.2-3,0.3-6.1,0.2-9.1c-0.9-0.4-1.8-0.2-2.6-0.2c-8,0.1-16-0.1-24-0.6c-5-0.3-9.9-1.3-14.4-3.7
		c-0.5-0.3-1.1-0.9-1.9-0.5"/>
	<path class="st0" d="M347.8,727.9"/>
	<path class="st1" d="M412,742.5c0,0-0.2-6.5,0.3-9.7c-1.9,0.1-2.3-1.1-1.9-2.6c-2.4-0.6-4.6,0.1-6.5-0.4c-1.2-3.3,0.5-6.3,0.9-9.4
		c-1.1,0.2-5,1.3-5,1.3c-8.7,0.8-8.7,0.8-8.7,0.8l-0.6,1.9c-2.8,8.9-11.4,14.2-20.9,13.1c-4.3-0.5-8.3-2.4-11.3-5.7
		c-1.2-1.3-1.8-1.3-4-2.1c-2-0.6-1.3,0.6-5.4-1c0,0,0,0,0-17.1c0-3.5,0-3.5,3.6-3.8c0.3,0,0.6,0,1,0c1.6,0.2,2.7-0.3,3.6-1.7
		c5-7.4,17.6-10,25.4-4.1c1.4,1.1,3,1.7,5,1.5c2-0.2,4,0.2,6,0.5c2.3,0.4,4.7-0.3,6.7,0.7c1.5,0.7,2.9,0.6,4.2,0.4
		c0.7-1.7-0.7-2.7-1.1-3.9c-0.6-1.8-0.3-4,0.2-6.1c1.7,0.5,3.3-0.1,4.9-0.1c0.8,0,3.5-2.8,3.3-3.6c-0.5-2.7,0.2-5.4,0-8.2
		c0,0-0.7,0.2-1.2-2.2c0-1.9,0.2-3.9,0.2-5.8c-0.3-12.1-0.2-24.2-0.6-36.2c-0.2-4.6-0.1-9.3,0-13.9c0.1-2.2,0-4.6,2.4-6
		c0.5-0.3,0.2-0.7,0.2-1c0.1-2.4,0.2-4.8,0.2-7.2c0-6.6,0-13.1,0-19.7c0-4,0-4,3.8-4.1c0.6,0,1.1-0.3,1.7-0.3c0.4-2.1,0.4-4.2,0-6.2
		c-1.7-0.5-3.6,0-5.6-0.4c0.4-14,0.7-27.9,0.5-41.7l5.6,0v-1.2c-1.8-1.5-4.5,0.7-5.4-1.6c-0.6-1.6-0.1-3.6-0.1-5.5
		c0-0.3,0.4-0.6,0.3-0.9c0.6-0.2,1.5-0.3,1.6-0.6c0.7-2.4,2.5-1.8,4.1-1.7c1.4,0.1,2-1.2,1.5-2.4c-1-2-2.6-2.9-5.1-2.2
		c0-2.7,0.1-5,0-7.3c0-0.9,0.7-2.4-1.4-2c-0.5,0.1-1-0.9-1-1.8c0.1-4.3,0-8.6,0.4-13c0,0,0,0,0.1-5.8c0.1-7.1,0.2-14.2-0.1-21.4
		c-0.2-4.2,0.5-7.7,4.2-10.1c2.4-1.6,3-3.8,2.7-6.5c-0.2-1.6,0-3.2,0-4.8c0-1.8,0.3-3.6,0.8-5.2c9.9,0.7,19.6,0.2,29.5,0.4v4.4h26.4
		c0,0,0.4,0,0.9,0c-1-9.5-3.1-7.1-2.4-9.8c0.3-1.4,0.3-2.9,0.2-4.3c0-0.4,0.6-1.1-0.4-1.2c-1.5-0.2-1.2-1.4-1.2-2.4
		c0-1.3,0-2.6,0-4.3c-4.2,0.9-8.4-1.2-12.3,1.5c-0.9,0.6-2.2,0.7-1.6,2.2c-1.6,0.5-3.1-0.1-4.4,0.5c0,1.7,0,3.4,0,5
		c0,0.1-0.1,0.2-0.5,0.5c-1,0-2.3,0-3.6,0c-0.6,3.4-1.7,4.2-4.8,3.8c-0.6-0.1-1.1-0.2-1.7-0.2c-7.5-0.1-15,0.1-22.6-0.2
		c-1.8-0.1-2.9-1.3-3.7-2.5c-0.4-0.6-0.6-0.9-1.3-0.9c-2.7-0.2-2.7-0.2-2.6-2.9c0-1.2,0.2-3.1-1-3.2c-1.8-0.2-1.3-1.5-1.8-2.4
		c-9.6,0-19.4,0-29.1,0c-0.3,0.7-2,0.3-1.9,0.7c-0.8,0.9,0,1.2-0.8,2.1c0.1,9.4-0.5,19.1,0.1,28.9c2.7,0.9,3,1.1,3.3,2.5
		c1.4,0.5,2.9,0.2,4.3,0.2c4.5,0,4.5,0,5.1,4.3c1,0.3,2.4-0.3,3.1,0.3c0,12.3,0,24.4,0,36.7c-1.2,0-2.2,0-3.1,0
		c-0.6,1.3,0,2.5-0.6,3.8c-2.3,0-4.6,0.1-6.9,0c-1.9-0.1-2.4,0.6-2.5,2.4c-0.3,5.1,0.5,10.2-0.7,15.4c-0.9,3.9-0.2,8.1-0.2,12
		c0.9,0.8,1.8,0.2,2.6,0.7c0,0.7-0.1,1.3,0,1.9c0.1,0.4,0,1.3,0.9,1.2c0.6-0.1,1.5,0.3,1.6-0.5c0.2-1.9,1.6-1.4,2.7-1.4
		c2.5-0.1,5,0.1,7.4-0.1c1.7-0.1,2.7,0.4,3.4,2c3.6,8.2,3.2,16.2-1,24c-0.7,1.3-1.8,2.2-3.6,2c-2.4-0.2-4.8,0-7.2-0.1
		c-0.7,0-1.7,0.2-1.9-0.5c-0.4-1.5-1.5-0.7-2.2-0.9c-0.5,0.8-0.5,1.9-0.5,1.9c0,0.3,0.1,0.6-0.6,0.9c-1.9-0.3-2.5,0.9-2.4,3
		c0.1,2.8-0.2,5.6,0.1,8.4c0.7,5.7,0.4,11.4,0.3,17c0,1.7,0.5,2.5,1.8,3.1c0.5,0.2,0.5,0.2,0.5,0.2c3.4,1.3,6.6,3.4,8.7,6l2.8-0.6
		c1.9,1.7,2.3,4.9,2.6,7.5c0.6,5.4,0.6,10.9-0.5,16.3c-1.4,7.4-3.3,14.7-6.6,21.6c-3.3,7.1-5.2,10.1-10.8,14.5c-1.8-3-4-0.6-6.1-0.4
		c-1.9,0.2-3.6,0.2-5.5-0.1c-1.7-0.2-3.8,0.2-5.2,1.5c-4.2,4-9.4,6.3-14.9,7.8c-1,0.3-1.7,0.4-1.9,1.5c-0.1,0.3,0.1,0.7-0.5,0.7
		c-2.2,0.1-1.7,1.8-1.7,3.1c0.1,2.1,0,4,1,6.1c0.9,1.9,1.4,4.7-0.5,6.9c-0.3,0.3-0.3,0.7-0.2,1c0.5,1.6,0.1,3.2,0,4.8
		c-0.1,1.3-0.3,2.6,1.6,3.3c0.8,0.3,0.6,2.4,0.2,3.2c-1.8,3.2-1.1,6.6-1.2,9.9c-0.1,3.1,0,6.6,0.5,9.7c0,0,0,0,0.3,2.5l0.5,2.7
		c0.4,1.1,1.6,3.5-1.2,4.6c-1.3,0.5-0.1,2.5-0.9,4c-3.3-0.2-6.6,0.2-10,0.2c-2.3,0-4.6,0-7,0c-1.2,0-1.7,0.3-2,1.7
		c-1,4.3-2.3,8.6-3.3,13c-0.3,1.3-0.8,3-2.7,3.2c0.6,2.4,0.6,2.4,0.6,2.4s0,0,1.4,0c1.6,0,1.8,0,3.3,0c0.6-0.8,0-1.6,0.8-2.5
		c2.9,0.1,5.7,1.2,8.7,1.6c0.4,2.5,4,1.5,4.4,4.1c0.1,0.5,1,0.9,1.8,1c1.8,0.2,3.8-0.2,4.7,2.3c0.4,1.1,2.5,0.9,3.7,1.2
		c2.2,0.4,4.3,1.1,6.5,1.5c1.3,0.2,2.8,1.3,4.1-0.2c0.2-0.2,0.5-0.3,0.7-0.2c2.9,1.7,2.9-0.7,3.4-2.4c0.3-1.2,0.8-2.3,1-3.6
		c0.3-1.9,0.8-3.9,3.3-3.2c0.9-0.7,0.1-1.6,1-2.4c3.6,0,7.6,0,11.5,0c2.9,0,5.8,0,8.6,0c0.5,0,0.9-0.2,1-0.7c0,0,0.9,0.6,0.9,1.4
		c-0.1,1.2,0.3,1.5,0.3,1.5c4.6-0.4,9.3-0.1,13.9-0.3c0.7-2.4-0.1-4.7,0.5-6.9c0.5,0,1,0,1.4,0c0.6-3.2-0.2-6.4,0.5-9.9
		C412,742.5,412,742.5,412,742.5"/>
	<path class="st0" d="M442.9,682.8c-0.2-0.3-0.4-0.2-0.7-0.2c-9.4,0-18.7,0-28.1,0"/>
	<path class="st0" d="M426.6,538.3c-1.6,0.5-3.2,0.1-4.8,0"/>
	<path class="st0" d="M376.9,128.4c0.7-1,1.9-2.4,2.7-3.6c6.1,4.5,11.7,9.4,16.8,15c6.5,7.2,11.1,15.4,14.6,24.3
		c0.3,0.9,1,1.5,1.2,2.4"/>
	<path class="st0" d="M331.9,132.3c0.2-0.2,2.1-0.7,2.6-0.6c5.3,1.3,11.6,2.4,16.8,3.9"/>
	<path class="st1" d="M283.3,119.9c-0.3,0.7-0.5,1.4-0.5,2c0,2.3,0,4.6,0,7c0,0.8,0.4,1.8-0.8,2.2c0.5,2.5,2.1,1.4,3.2,1.1
		c5.1-1.2,10.3-1.3,15.4-1.8c6.1-0.5,12.2-0.1,18.2,0.5c1.8,0.2,3.8,0.5,5.5,0.6c2.4,0.2,5,1.8,7.5,0.7c-1-2.9-0.5-6-0.5-8.9
		c0.1-5-1.1-5.7-5.8-6.5c-7.9-1.2-15.8-1-23.8-0.9c-5.3,0.1-10.6,0.7-15.8,1.4C285,117.5,283.9,118.6,283.3,119.9z"/>
	<path class="st3" d="M349.1,590.6c-0.9-0.4-1.8-0.2-2.6-0.2c-10.2,0-20.3,0-30.6,0c0,3,0,5.9,0,9.1c14,0.6,28.2,0.5,42.6,0.5
		c0-2.9,0-6,0.3-9.2c-3.3-0.4-6.4-0.7-9.4-0.1"/>
	<path class="st3" d="M335.4,603.1c5.3,0.6,10.6,0.1,15.8,0.2c1.7,0,3.4,0,5,0c0.9,0,1.8-0.1,2.4,0.7c-0.6,3,0,6.1-0.4,9.4
		c-14.2,0.1-28.4-0.5-42.6-0.2c-0.6-3.7,0.1-6.8,0-10.1c2-0.6,4-0.4,6-0.3c4.5,0.3,9,0.1,13.4,0.2"/>
	<path class="st0" d="M201.5,753.8c-0.8,0.5-1.6,0.2-2.4,0.2c-12.6,0-25.1,0-37.7,0c-1.6,0-3.2,0.3-5-0.3c0-2.8,0-5.7,0-8.6"/>
	<path class="st0" d="M90.4,315.4c0.9-0.3,1.8-0.4,2.7-0.1c0.2,1.4,0.3,2.5,2.3,2.1c1.4-0.3,3,0.7,4.5,0.6c1.2,0,1.5,0.7,1.4,1.7
		c-0.7,6,1.5,11.8,1,17.8c-0.1,1.1,0.5,2.4-1.2,2.9c-0.6,0.2-0.2,0.9-0.2,1.4c0,1.3,0,2.6,0,4c-2.8,0.2-5.4-0.2-7.9,0.5
		c-0.4,0.8-0.2,1.6-0.2,2.4c0,7.4,0,14.9,0,22.3c0,2.6,0,2.7,2.6,2.6c1.3,0,2.5,0.7,3.8,0.6c1-0.1,1.2,0.7,1.2,1.6
		c0,1.1,0,2.2,0,3.4c0,0.5-0.3,1.2,0.2,1.4c2.1,0.9,1.5,2.8,1.4,4.3c-0.3,5-1.7,9.8-1.5,14.9c0.1,1.1,0.3,2.2,0.3,3.4
		c0.1,4.5-0.1,9-0.5,13.4"/>
	<path class="st0" d="M329.6,178.1c0,8.7,0,17.4,0,26c-0.8,0.5-1.4,0.4-1.9,0.4c-9,0-17.9,0.1-26.9-0.2c-0.6,0-1.3-0.2-1.9-0.2"/>
	<path class="st2" d="M278.8,520.6c4.9,0.5,9.8,0.1,14.8,0.3c0-3.6,0-6.9,0-10.3c-14.4-0.1-28.8-0.5-43.1-0.3
		c-0.1,3.4,0.1,6.6-0.3,10c4.5,0,8.8,0,13,0c5.1,0,10.2,0.1,15.4,0.5"/>
	<path class="st0" d="M334.4,177.1c-0.1,8.2-0.7,16.5-0.5,24.7c0.1,2.7-1.3,4.6-3.5,6.1c-1.6,1-3.2,1.4-5.1,1.4
		c-12.7-0.1-25.4,0-38.2-0.1c-2.6,0-4.3-2-5.7-3.8c-1-1.3-1.7-2.8-1.6-4.8c0.2-3.3-0.5-6.7,0.3-10.1"/>
	<path class="st0" d="M161.2,745.2c0,1.5,0,3,0,5c13,0,26.3,0,39.6,0"/>
	<path class="st0" d="M155.4,289.7"/>
	<path class="st0" d="M320.3,757.3c-0.4-0.4-1.2-0.4-2.7-0.4c-5,0-9.9-0.1-14.9,0l-13.7,0.2c0,0-3-11.1-3-14.9"/>
	<path class="st1" d="M347.8,727.9"/>
	<path class="st0" d="M427.6,742.5"/>
	<path class="st1" d="M274.3,761.4c-0.1,0.2-0.6,0.2-0.6,0.2c-1.9,0.4-1.9,0.4-1.7,2.4c-1.5,0.7-2.9,1.4-4.6,1.4
		c-0.8,0-1.5,0.7-1.4,1.2c0.6,1.5-1.4,0.9-1.6,1.6c-4.2,1.1-8.1,2.1-12,3.1c-1.8-1.7-1.8-1.7-4.5-0.6c-1.4-2.4-2-5.2-2.9-7.8
		c-0.5-1.4-0.7-2.8-2.7-2.4c-0.5,0.1-0.9-0.1-0.9-0.7c0-2.1-1.6-2-2.9-1.9c-6.8,0.4-13.6,0.1-20.4,0.2c-0.6,0.6,0.1,1.5-0.7,2.4
		c-3.1,0-6.4,0-9.7,0c-4.7,0-4.3,0.6-4.3-4.3c0-1,0.3-2.2-1-2.6c-1-0.3-1.1-0.9-1.2-1.7c-0.4-2.5-0.2-5,0-6.9c-0.9-1.3-2-0.3-3-1.2
		c0.2-2.9-0.6-6,0-9.2c0.4-2,1.8-3.3,3.9-3.4c1.7,0,3.4,0.2,5.3-0.3c-0.2-1.7,0.5-3.7-0.6-5.2c-1.4-1.9-0.7-3.9-1-6.1
		c1.6,0.1,2.9-0.3,3.9,0.8c0.5,0.5,1,0.7,1.7,0.7c3.3-0.1,6.5,0.9,9.8,0.4c0,5.7,0.1,11.5,0.4,17.2c10.9,0,21.5,0,32.2,0
		c0.1-2.8,0.2-5.6-0.2-8.4c2.5-1.6,5.9,0.9,8-2.5c0.4,3.3-1.7,6.4,1.8,8.1c-0.5,2.8-0.4,3.1,2.4,3.1c3.9,0,7.8,0.6,11.8,0.1
		c1.5-0.2,3,0.4,4.7,0.1c1.4,5.3,2.8,10.6,4.1,15.9c0.3,1.2,0.7,2.1,2.2,1.9l0,2.6c-1.8-0.2-4.2,1.8-4.9-1.7
		c-0.1-0.5-0.8-0.5-1.4-0.3c-1.9,0.6-3.9,1.1-5.8,1.6C276.8,759.5,274.8,759.8,274.3,761.4z"/>
	<path class="st0" d="M337.2,761.1c-0.5,2.6-0.3,5.7-0.3,8.4c-0.1,3.6,0,7.2,0,10.9c-0.9,0.3-1.8,0.1-2.6,0.1c-19.2,0-38.4,0-57.6,0
		c-2.6,0-2.6,0-2.6-2.6c0-4.7,0-11.6,0-16.3"/>
	<path class="st0" d="M346.1,766.8v21.8h-50.6c-10.2,0-20.5,0-30.7,0c0-3.6,0.1-17.2,0-20.5"/>
	<path class="st0" d="M315.7,2.4c4.9,0.9,9.8,1.6,14.6,3.1c8.1,2.5,15.6,6.2,22.6,11c4,2.8,8,5.5,11.2,9.2"/>
	<path class="st0" d="M142.7,513.1c1.6,2,3.8,3.2,5.4,5.2c0.7,0.9,0.9,1.7,0.9,2.7c0,4.6,0,9.1,0,13.7c0,1-0.5,2.3,1.4,2.2
		c0.8,0,1,0.9,1,1.6c-0.4,8.9-0.3,17.8-0.5,26.6c0,1,0.3,2.1-1.4,2c-0.5,0-1.4,0.7-0.7,1.6c-0.4,0.2-0.2,0.6-0.2,1
		c-0.2,11-0.3,21.9-0.5,32.9c-0.1,4.9,0,9.8,0,14.6c0,0.6-0.1,1.3,0.2,1.9"/>
	<path class="st0" d="M411.2,115.9c-8.8-8.8-18.6-16.2-30-21.6c-1.6,2.1-2.9,4.3-4.1,6.5"/>
	<path class="st0" d="M464.3,208.6c1.8,1.9,3.4,4,5.3,5.8c1.1,1.1,2.3,1.4,3.9,1.4c9.9,0,19.8,0,29.8,0.3c7.9,0.2,15.8,0.1,23.8,0.2
		c0.5,0,1-0.2,1.7,0.4c0,5.7,0,11.5,0,17.4c0,2.8,0.3,5.6-0.2,8.4"/>
	<path class="st0" d="M152.3,697c-0.5,0.8-0.2,1.6-0.2,2.4c0,9.9-0.2,19.8,0,29.8c0.1,4.6,0.1,9.1,0.1,13.7c0,1.2,0.6,1.9,1.5,1.9
		c3.8,0.1,7.7,0,12,0c0-3.3,0-6.2,0-9.1c0-0.6,0.2-1.4-0.7-1.7c-1-0.3-1.3-1.3-1.4-2.2c-3.8,0.6-7.3,0.5-10.8,0.5"/>
	<path class="st0" d="M201,745.9c-11.7,0-23.4,0-35,0"/>
	<path class="st0" d="M304.2,705.1c0-5.3,0.2-10.6-0.3-15.8c-0.5-5.4,5.9-14.2,12.5-15.3c1.4-0.2,2.8-1.1,4.4-0.2
		c0,10.6,0,21.3,0,32.1c-5.8,0.8-12.4-3.1-15.2-9.1c-0.3-0.7-0.2-1.6-1.2-1.9"/>
	<path class="st0" d="M96.6,250.3c-2-0.2-4-0.4-5.6-1.8c-0.8,0.6-0.4,1.5-1,2c-1.6-0.4-3.1-0.3-4.7,0.1c-0.3,9.2,0.2,18.5-0.4,27.8
		c1.1,0.6,2.3,0.1,3.6,0.5c-0.1,4.2-0.2,8.4-0.3,12.5c-0.1,2.9,0.7,5.7,0.6,8.6c-0.3,4.6-0.4,9.3-0.5,13.9c0,1-0.3,2,0.2,2.9"/>
	<path class="st2" d="M318.8,537.1c13.4,0.1,26.7-0.3,40.2,0.3c-0.4,3.5,0.2,6.7,0.1,10.2c-14.2,0.5-28.5-0.5-42.8-0.4
		c0-3.4,0-6.9,0-10.3c0.8,0.2,1.6,0.6,2.3,0"/>
	<path class="st0" d="M454.2,542.4c-3.5-0.3-6.9-1.5-10.3-2.2c-0.7-0.2-1.5,0.2-2.2-0.4c-1.2,5.5,0.4,10.9,7.9,15.2
		c0.1,1.4-1.1,1.4-1.9,1.9c-4.6,2.7-8.3,7.6-6.5,14.2c3.8-0.5,7.3-2,11-2.8c0.9-0.2,1.8-0.1,2.7-0.4c1-0.4,1.4-0.4,1.3,1
		c-0.1,1.7,1.7,1,2.8,1.4c0,3.5,0.3,7-0.1,10.4c-0.5,4-0.3,8-0.4,12c-0.2,5.4-0.5,11,0,16.3c0.6,6.8-0.9,13.4-0.1,20.2
		c0.4,3.8-0.4,7.8-0.1,11.7c0.5,8.9,0.3,17.8,0.3,26.6c0,2.1,0,4.2,0,6.6c-2.2,1.3-2.3,3.7-2.2,6.3c0.1,3.4-0.2,6.7,0.1,10.1
		c0.8,11.9,0.3,23.8,0.4,35.8c0,0.8,0.1,2.1-0.4,2.8"/>
	<path class="st1" d="M194,576c0.2-0.6,0-1.3,0-1.9c0-14-1.8-46.6-1.9-49c0-4.3,0-8.2,0-12c0-1,0-2.4,1-2.6c1.9-0.4,1.4-1.7,1.4-2.7
		c0-9.4-0.1-18.9,0.1-28.3c0.1-3.9,0-7.8,0.3-11.8c0.2-2,0.9-4.4-0.3-5.9c-1.7-2.1-3.3-4.8-6.4-4.9c-0.5-1.4-0.4-2.6-0.4-3.8
		c0.5-11.1,0.5-11.1,0.5-11.1H156v6.4h-24.6v-5.2c0.3-2,2.4-3.4,1.8-5.7c-0.3-1.4-0.2-2.9-0.2-4.3c0-0.4-0.6-1.1,0.5-1.2
		c1.5-0.2,1.2-1.4,1.2-2.4c0-1.3,0-2.6,0-4.3c4.2,0.9,8.4-1.1,12.3,1.7c0.9,0.7,2.2,0.7,1.6,2.2c1.6,0.5,3.1-0.1,4.4,0.5
		c0,1.7,0,3.4,0,5c0,0.1,0.1,0.2,0.5,0.5c1,0,2.3,0,3.6,0c0.6,3.4,1.2,3.6,4.3,3.6l27.5,0.1v-2c2,0.2,1.2-1.5,1.6-2.3
		c1.3-0.6,2.8,0.3,3.8-0.6c0.5-1.7,0.3-3.3,0.3-4.9c0.8-0.4,2.2,0,2.3-1c0.3-1.9,1.6-1.4,2.7-1.4c5.2,0,10.4,0.1,15.6,0.2
		c4.8,0.2,9.8-1,13.9,2.1c0,9.8,0,19.7,0,29.3c-0.9,0.8-1.9,0-2.7,0.7c-0.5,0.7,0.1,1.7-0.6,2.5c-2.8,0-5.9,0-8.9,0
		c-0.6,1.3,0,2.6-0.5,3.8c-1.1,0.5-2.4-0.1-3.6,0.4c-0.6,12.1-0.6,24.3-0.5,36.4c1.3,0.7,2.5-0.1,3.6,0.5c1.4,0.9,0.4,2.3,0.7,3.4
		c3,0.9,6.4-0.6,9.3,0.9l-0.5,4.3c-0.5,3.9-0.7,7.9,0,11.7c0.4,2.3,0.6,4.5,0.7,6.8c0.1,2.2,0,4.3,0,6.4c-1,0.6-2.1-0.2-2.9,0.7
		c-0.4,2.7-0.4,2.7-0.4,2.7c-1.3,0.4-2.9,0.8-3.5-1.2c-0.2-0.6-1.3-0.5-2.1-0.5c-2.2,0-4.3,0.2-6.5,0c-2.2-0.2-3.2,0.8-4.1,2.7
		c-3.7,7.8-3.5,15.4,0.3,23.1c0.7,1.5,1.7,2.4,3.6,2.2c1.8-0.2,3.7,0,5.5-0.1c1.4-0.1,3,0.5,4.1-1.2c0.4-0.7,1.4-0.1,2.1-0.3
		l0.5,2.5c0.9,0.8,1.9,0,2.8,0.8c0,3.8,0.8,8-0.2,11.8c-1.3,5.3-0.5,10.4-0.7,15.6c-0.1,2.3-1,3.6-2.8,4.2c-1.6,0.6-3.2,1.1-4.8,2
		c-1.8,0.9-3,2.5-4.4,3.7c-1-0.4-1.6-1.2-2.9-1.4c-1.6,2.2-2.6,4.8-2.9,7.5c-1.5,13.2,1.2,25.9,5.9,38.2c2.5,6.4,5.5,12.3,10.8,16.8
		c0.4,0.3,0.6,0.9,1.1,0.7c1.5,0,1.2-1.8,2.3-2.2c3.8,1.2,7.6,2.8,11.7,1.5c0.3-0.1,0.7-0.1,1,0.2c0.6,0.6,1.1,1.5,2.2,0.5
		c0.3-0.3,0.8,0.1,1.2,0.4c4.7,4.6,10.7,6.8,16.8,8.6c0.5,0.1,1.5,0,1.4,0.5c-0.4,1.8,2.6,1.7,1.8,3.9c-0.7,2-0.2,4.1-0.8,6.3
		c-0.6,2.2-0.8,4.9,0.6,7.5c0.9,1.7,0.9,4.6,0,6.3c-1.1,2.3-0.7,4.4-0.7,6.6c0,0.9,0.2,1.6-0.8,2.3c-1.9-3.2-5.5-0.5-8-2.2
		c0.5-2.7,0.2-5.4,0-8.1c-10.6-0.6-21.3-0.4-32.2-0.4c0,1.5,0,2.9,0,4.4c-3.1,1.2-6.4,0.4-9.6,1c-1.6,0.3-2.1,0.9-2,2
		c-2.3,0-3.6,0-3.6,0c-0.9-3.3,1.9-6.2,0.4-9.5c-2.3-0.4-4.7,0.2-7.1-0.3c-0.4-1,0.2-2.6-1.7-2.7c-0.5,0-0.2-0.9-0.2-1.4l0.2-8.4
		c1.6,0.2,1.5-0.9,1.4-1.9c-0.1-5.5-0.2-11.1-0.1-16.6c0.1-11,0-21.9,0.2-32.9c0-1.2-0.1-2.3-0.5-3.4c-0.8-2.2-1.4-4.5-1.9-6.7
		c-0.6-2.4-0.2-5.3-3.3-6.5c-0.1,0-0.1-0.8-0.1-1.2c0-7.8,0-15.5,0-23.3c0-2.3,0-4.6,0-7.2C194,576,194,576,194,576"/>
	<path class="st0" d="M148.4,623.5c0,9-0.2,17.9,0.1,26.9c0.2,6.6,0.2,13.3,0.3,19.9c0,3.4,0.8,6,2.8,8.4c0.7,0.8,0.7,1.6,0.7,2.4
		c0,4.3,0,8.6,0,13c0,0.8-0.2,1.6,0.5,2.6c3.1,0,6.6,0,10,0c0.3,0,2.4-2.6,2.4-3.1c-0.1-3.1,0.5-6.3-0.2-9.4"/>
	<path class="st0" d="M517.8,419.8c-2,0.6-4.5,0.2-7.4,1c0,3.5,0,7.4,0,11.2c0,0.8,0.7,1.9-0.9,2.2c-0.8,0.1-0.5,1-0.5,1.6
		c0,1.8,0,3.7,0,5.5c0,1.2,0.5,2.7-1.2,3.4c-0.3,0.1-0.5,0.8-0.5,1.2c0.5,4.6,0,9.3,0.3,13.9c2.5,0.4,2.8,0.7,2.8,3.1
		c0.1,6-1.1,12-0.7,18c0.1,0.8-0.1,2.2,0.4,3"/>
	<path class="st0" d="M90.4,305.3c-0.6,3.3-0.3,6.6-0.2,9.8c0.1,1.1,0,1.6-1,1.9c-1.1,0.3-1,1.3-1,2.1c0,7.9,0,15.8,0,23.8
		c0,1,0.1,1.9-0.3,2.8c0.6,0.8,1.5,0.5,2.2,0.8c0.3,0.7,0.2,1.6,0.2,2.4c0,7,0,14.1,0,21.1c0,1.2,0.7,2.8-1.7,3
		c-0.6,0-0.5,1.2-0.5,1.8c-0.1,5,0.1,9.9-0.2,14.9c-0.5,8.3-0.2,16.6-0.3,25c0,0.3-0.2,0.7,0.2,1"/>
	<path class="st2" d="M316,551c0.4,3-0.3,5.9,0.1,9.1c14.1-0.2,28.4,0.4,42.7,0.2c0-3.1,0-6.1,0-9.3c-2-0.3-4.2-0.2-6.4-0.3
		c-11.8-0.2-23.7-0.2-35.5-0.3c-0.3,0-0.6,0.1-1,0.2"/>
	<path class="st0" d="M149.1,205.1c-2.1,2.7-4.6,4.9-6.8,7.3c-0.8,0.9-1.6,1-2.7,0.9c-10.8-0.1-21.6,0-32.4-0.3
		c-6.6-0.2-13.3,0-19.9-0.2c-0.5,0-1-0.2-1.7,0.4c0.5,8.6-1.1,17.4-0.1,26.2c1,0.4,2.2,0.3,3.3,0.2c1.3-0.1,1.9,0.4,1.9,1.7"/>
	<path class="st0" d="M440.3,581.3c-0.5,2.1,0.1,4.2-0.6,6.3c1.9,0.4,3.6-0.2,5.4,0.6c0,6.7,0,13.6,0,20.2c2.3,1.2,5.9-0.7,6.1,3.1
		c0.1,2,0.6,4.4-0.3,6.2c-1,2.2-3.8,0.7-5.9,1.7c0.2,12.1-0.2,24.4,0.5,37c-4.1-0.6-6.8,1.7-9.6,4"/>
	<path class="st2" d="M336.4,523.9c6.1,0.5,12.2,0.1,18.2,0.2c1.4,0,2.7-0.2,4.2,0.3c0,3.2,0,6.4,0,9.4c-14.2-0.1-28.3,0.2-42.5-0.4
		c0-3.1,0-6.2,0-9.4c5.1,0,10,0,15,0c1.6,0,3.2,0.6,4.8,0"/>
	<path class="st0" d="M179.9,124.8c-2.3,2-3.5,4.7-5,7.2c-4.4,7.1-7.8,14.7-10.6,22.6c0.1,1,2.4,0.5,1.6,2.4
		c-0.3,0.6,0.9,0.9,1.6,0.9c2.7,0.3,5.3,1.1,7.9,1.9c1.8,0.5,1.7,1.2,0.5,2.2"/>
	<path class="st0" d="M523.1,244.6c1.3-2.5,1.3-2.5,6-1.6c-0.6,11.9-0.5,23.8-0.4,35.7c0,2-0.4,3.2-2.7,2.9
		c-1.1-0.1-1.1,0.5-1.3,1.4c-0.4,2.9-0.2,5.8-0.4,8.7c-0.5,9.4,0.6,18.7-0.1,28.1"/>
	<path class="st0" d="M241.6,109.7c-1.1-2-1.9-4.1-3-6c-0.7-1.3-1.5-2.7-1.4-4.5c0.1-2.1-1.8-3.6-2.8-5.4
		c-11.6,5.4-21.5,12.7-30.7,21.1"/>
	<path class="st0" d="M128.9,278.9c0.4,8.5-8.6,13.1-13.8,13.6"/>
	<path class="st0" d="M412,116.6c5.1,5.5,10,11,13.7,17.5c-0.9,1.8-3.2,1.9-4.4,3.6c0.9,1.6,1.8,3.5,3.1,5.2
		c1.8-0.2,3.2-1.5,4.6-2.2c1.5,0.1,1.7,1.3,2.1,2.2c2.5,5.3,5.2,10.4,6.7,16.1c0.5,1.9,2,1.6,3.1,1.4c1.7-0.4,3.3-0.9,5.1-0.9
		c0.9,0,1.6,0,1.4,1.2"/>
	<path class="st0" d="M442,738.2c0-4.3,0-8.6,0-13c0-1.5-0.2-2.2-2-1.7c-4.8,1.2-8.5,3.5-10.6,8.2c-0.2,0.5-0.2,1.5-1.4,1.5
		c-0.4-0.4-1-0.5-1.5-1.4c-2.6-4.9-6.5-7.9-12.4-8.2c0,4.9,0,9.8,0,14.6"/>
	<path class="st0" d="M454.7,542.4c2.1,0.9,1.9-0.8,2.2-1.9c0.7-0.3,1.6,0,2.2-0.8c0-4.8,0-9.6,0-14.4c0-2.8,0.4-5.3,2.8-7.3
		c2.6-2.1,4.8-4.7,7.3-7.1c0.4-0.4,0.7-1,1.4-1c2.7,0,5.4-0.1,8.2,0c6,0.3,13.2,0.3,19.2-0.1l6.2,0.3c6.6,0.5,13.1,0.1,19.7,0.2
		c1,0,2.1,0.1,3.1-0.3c0.1-0.9,0.2-1.7,0.2-2.6c0-7.2,0-14.4,0.1-21.6c0-0.9-0.1-1.9,0-2.9c0.4-3.3,0.5-6.8,0.1-10.1
		c-0.7-5-0.8-9.9-0.4-14.9c0.4-4.3,0.1-8.6,0.2-13c0-1-0.5-1.6-1.4-1.4c-2.1,0.5-1.9-0.9-1.9-2.2c0-6,0-12,0-18c0-1,0.3-2.1-0.2-3.1
		c-0.9,0-1.6,0-2.7,0c-0.1-1,0-1.2,0-2.9"/>
	<path class="st0" d="M520.4,318c0.5,0,0.9,0.2,1,0.7c0.1,1.9,1.3,1.9,2.9,1.3c-0.2,9.8,0.2,19.5-0.3,29.2c-0.6,0.8-1.6,0.1-2.6,0.8
		c0,4.4,0,9,0,13.5c0,3-0.1,5.9-0.4,8.9c-0.1,1-0.8,3.4,2,3.2c1.3-0.1,0.4,1.5,0.8,2.1c2.9,0.5,2.9,0.5,2.8,3.4
		c0,1.3,0.2,2.6-0.2,3.8c-0.6,0.1-1.3,0.3-2.2,0.5c0,6.3,0,12.7-0.3,19c-0.9,0.4-1.9,0.2-3.1,0.3c0,4.4,0.6,8.7,0,12.9"/>
	<path class="st0" d="M451.8,180.7c0.2,0.8-0.3,1.3-1,1.4c-1.4,0.3-2.7,0.9-4.1,1.4c-2.8,1.2-2.9,1.4-2.4,4.4
		c0.6,3.7,0.1,7.5,0.3,11.5c-1.9-0.5-3.3-0.6-4.9-0.1c0,3.2,0,6.4,0,9.7c0,1.1,0.8,1.2,1.7,1.2c2.4,0,4.8,0,7.2,0
		c1.3,0,2.2,0.4,3.2,1.4c3,2.8,5.6,6.1,9.1,8.5"/>
	<path class="st0" d="M452.3,179.8c2.5,0.1,3.6,1.1,3.9,3.4c0.8,5.6,1.1,11.2,0.9,16.8c-0.1,3,2.3,4.1,4.1,5.8
		c0.5,0.5,1.1,1,1.7,1.4"/>
	<path class="st0" d="M286,90c-0.6,2.8-0.4,6.1-0.5,8.9c-0.1,6.1,0,12.2,0,18.2"/>
	<path class="st0" d="M118.2,439.7"/>
	<path class="st0" d="M160.9,176.2c-3.7,1.9-2.9,5.5-3.3,8.6c-0.5,4.2-0.6,8.5-1,12.7c-0.2,2-2.2,2.6-3.3,3.8
		c-0.2,0.3-0.5,0.5-0.8,0.8c0.5,1.3,1.9,1.9,2.5,3"/>
	<path class="st0" d="M288.9,759.8l1.6,0.5c9.6,0,29.8,0,30.5-0.4"/>
	<path class="st0" d="M404.4,705.1c0.4,4.7,0.7,10.4,0.4,15.1"/>
	<path class="st0" d="M341.2,764.2c0,0,0,0,0,3.8c0,1.8,0,3.2,0,4.8c0,3.8-0.5,7.5-0.2,11.5c-5.3,0-10.5,0-15.7,0
		c-25.2,0.2-25.2,0.2-25.2,0.2c-1.9,0.1-3.9,0-5.8,0.1c-7.4,0.2-14.9,0.1-22.3,0.2c-2.6,0-2.7,0-2.6-2.6c0.2-5.6-0.7-11.2,0-16.8"/>
	<path class="st0" d="M286.9,106.8c0,2.6,0.6,4.4,0.3,6.9c13.5,0.7,27,0.5,40.5,0.6c0.6-4.6,0.5-9.1,0.5-14.2c-8,0-15.7,0-23.5,0"/>
	<path class="st0" d="M90.4,414c1.7-0.3,2.5,0.5,2.1,2.4c2.8-0.2,5.2,0.8,8,0.6c0,3.6-0.5,7.1,0.1,10.5c0.8,4,0.8,8,0.8,11.7
		c0.7,1,1.6,0.6,2.4,1.5c-0.1,4.6,0.2,9.7-0.3,14.8c-0.6,0.1-1.2,0.3-1.9,0.3c-1.2-0.1-1.7,0.5-1.7,1.7c0,4.1,0,8.2,0,12.2
		c0,3.3,0.2,6.6-0.5,9.8"/>
	<path class="st0" d="M208.2,152.4"/>
	<path class="st0" d="M249.4,121.2c-3.8,2.6-9.3,5.3-13.4,7.4c-4.7,2.4-7.8,6.5-12.1,9.5c-1.5-0.2-2.1-1.9-3.6-2.5
		c-3.3,3.1-6.4,8-8.8,11.8"/>
	<path class="st0" d="M454.2,549.8c0.1-2.6-0.2-5.1,0.2-7.7c0.2-1.2-0.5-1.8-1.4-1.9c-1.9-0.2-3.6-1.2-5.5-1.4
		c-2-0.2-2.6-1.1-2.4-2.9c0.1-0.9,0.2-1.8-0.2-2.9c-2.5,0-5,0-7.4,0c-0.8,0-1.2,0.6-1.7,1"/>
	<path class="st0" d="M112.9,264.5c-0.5-4.1,0-8.2-0.3-12.2c-0.2-2.5,0.7-4.2,2.6-5.8c1.4-1.1,2.8-2.3,3.7-4
		c-4.3-5.1-9.3-9.6-13.7-14.6c-6.9,6.3-9.8,14-8,22.7c1.7,8.2,7,14,15,16.7c1.2-0.6,0.3-1.7,1-2.4c5.2-0.2,9.7-1.8,12.6-6.6"/>
	<path class="st0" d="M285.5,178.1c-0.8,2.6-0.4,5.3-0.5,7.9c-0.1,5.9,0,11.8,0,18c4.2,0,8.3-0.1,12.5,0.2"/>
	<path class="st0" d="M100.9,489.3c-1.4,0.1-1.5-0.9-1.4-1.9c0-2.4,0-4.8,0-7.3c-2.9-1.4-6.4-0.9-9.4-2.3"/>
	<path class="st0" d="M448.2,497.3c-8.6,0-17.3,0-25.9,0c-2.3,0-4.6-0.1-7-0.2"/>
	<path class="st0" d="M101.2,318.2c0.6,0,0.7-0.6,0.7-1c0.1-4.2,0.5-8.5,0.2-12.7c-0.3-4.8-0.7-9.6-0.6-14.4c0-0.7-0.4-1.5,0.5-1.9
		c1.2-0.5,0.9-1.5,0.9-2.4c0-2.4,0-4.8,0-7c8.1,0,18.2,0,26,0"/>
	<path class="st0" d="M348.8,709.7c12.8-0.3,19.6,11.3,18.5,18.8c-4.7,0.5-9.9,0.2-14.6,0.8"/>
	<path class="st0" d="M164,228.5c1.2,0.3,0.4,1.2,0.4,1.7c0.1,5.3,0.1,10.6,0.1,16.1c-4.6,0-8.9,0-13.2,0c-10.2,0-20.3-1.1-30.5-0.8
		c-2,0.1-2.9,1.4-4.1,2.5c-1.2,1.1-2,2-1.8,4.1c0.4,5.4,0.1,10.9,0,16.3c-0.1,2.7,0.1,5.1,0.2,8.3c0.2,1.4-0.1,3.6,0,5.6
		c0.1,3.4,0,6.9,0,10.2"/>
	<path class="st0" d="M193.3,295.7c-11.9-0.1-23.8-0.2-35.8-0.2"/>
	<path class="st0" d="M520,306.2c-0.5,4.5-0.2,9,0.1,13.3c-3.1,1.4-6.2,0.3-9.2,1.9c0,2.8,0,5.9,0,9.1c0,0.6,0.2,1.2,0,1.7
		c-1.9,3.5-0.7,7.2-0.7,10.8c0,1,0.1,2.1,0,3.1c-0.2,1.3,0.5,2.4,1.5,2.8c1.1,0.3,1.1,0.3,1.1,0.3"/>
	<path class="st0" d="M334,676.1c0,9.3,0,18.6,0,27.9c2,0.5,3.7,1,5.5,1.4c2.1,0.5,2.5,0.3,2.4-1.9c-0.3-7-0.2-13.9-0.2-20.9
		c0-2.3,0.1-4.6,0.3-7c0.1-1.8-0.8-2.1-2.2-1.9c-11.9,1.8-18.1,14.8-11.5,24.5c1.4,2.1,3,4.1,5.5,5"/>
	<path class="st0" d="M498.4,268.1c0.2,4.1-0.5,8.6-1.3,12.9c4.4-0.7,8.3-0.3,12.4,0.1c0.8,1.7-0.3,3.8,0,5.8
		c0.2,1.5-0.8,3.5,1.7,4.2c0.2,0.1,0.2,1.2,0.2,1.8c0,2.9,0.1,5.8-0.4,8.6c-0.1,0.4-0.2,1,0.1,1.4c2.2,0.8,4.4,0.6,6.6,1.2
		c1.2,0.3,2.2,0.3,2.7,1.7c0.2,0.7,0.8,0,1.2,0"/>
	<path class="st0" d="M498.1,247.5c-0.4,2.1-0.2,15.1-0.2,17.2c0,1.1-0.2,2.3,0.5,3.4"/>
	<path class="st0" d="M274.4,676.1c-2-1.2-4.3-1.1-6.7-1.5c0,10.5,0,21,0,31.7c2.9,0.2,5.2-0.5,7.2-1.6c0-9.6,0-19,0-28.3"/>
	<path class="st0" d="M516.1,243.4c-0.2,2.5,0.2,4.9-0.1,7.5c-0.4,3.7-1.7,6.9-3.8,9.8c-2.5,3.3-5.5,6.2-9.5,7.8
		c-1.1,0.4-2,0.8-2.9-0.3c-0.4-0.5-1-0.1-1.4-0.2"/>
	<path class="st0" d="M320,757c0.8-5.1,2.4-10.1,3.6-15.1c-6.4-2.4-14.6,2.3-17,7c-1.3,2.5-2.3,5.2-1.9,8.2"/>
	<path class="st0" d="M454.2,555.6c-0.4,3.8-0.5,7.7,0.1,11.5c0.2,1.1-0.2,1.9-0.3,3.1c-2.3,0-4.4,1.1-6.7,1.3
		c-1.5,0.1-2.3,0.9-2.2,2.6c0.2,2.1,0,4.3,0,6.9c-2.1-1.1-4.1,0.5-6-0.7"/>
	<path class="st1" d="M457.3,342.2c-0.2,3.2,2.6,1.5,3.6,2.4c0.6,0.5-0.1,1.4,0.5,1.8c3.5,2.9,7.6,1.5,11.5,1.9
		c1.8,0.2,2.3-0.8,2.1-2.2c-0.2-1.4-0.4-2.6,1.2-3.4c0.7-0.3,0.8-9.8,0.3-10.5c-0.7-1-1.3-3.2-1.4-5.3c-2.4-0.5-4.9,0.2-7.2-0.3
		c-2.5-0.5-4.1,1.6-6.3,1.8c-0.6,2.6-0.6,2.6-4.3,2.6C457.3,334.7,457.3,338.5,457.3,342.2"/>
	<path class="st0" d="M304,685.9c-1.3-1.1-1.3-2.8-2.2-4.1c-3.1-4.7-7.2-7.7-13-8.2c-1.2-0.1-1.2,0.1-1.3,1.2
		c-0.4,4.4,0,8.8-0.1,13.2c-0.1,4.6,0,9.3,0,13.9c0,5.4,0.4,4.6,4.5,3.6c5.5-1.4,9-5.1,11-10.3"/>
	<path class="st0" d="M281.6,130.8c0-3.2-0.9-6.4-0.4-9.8c-4.8,0-8.9,5.3-9.2,12.2"/>
	<path class="st0" d="M446.8,171.5c-2.4,0.7-3.7,3.4-4.3,5.9c-0.6,2-1.1,4.2,0.7,6c3-1.1,6-2.2,9-3.3c-1-3.1-1.4-6.2-2.5-9.2"/>
	<path class="st0" d="M471.7,237.1c-0.3,2.4-1.7,4.6-2.2,7.2c3.2,0,6.4,0,9.6,0c0-5.4,0-10.9,0-16.6c-3.9,0-7.6,0-11.3,0
		c-1.6,0-3.2-0.1-4.8,0c-1.4,0.1-2.1-0.7-2.1-1.9c-0.2-3-0.4-6.1,1.9-8.7c1-1.2,2.2-2.4,1.8-4.3c-0.1-0.7,0.8-1.3,1.6-1.7"/>
	<path class="st0" d="M318.8,3.6c0,0.9,0.1,1.8-0.2,2.6c-1.4,0.6-2.9,0-4.3,0.6c0,0.4,0,1.3,0,1.3c2.8,0.3,2.3,2.8,2.8,4.4
		c0.5,1.8,1.2,3.6,1,5.5"/>
	<path class="st0" d="M419.4,579.8c6.5-0.3,13,0.6,19.4,0.5c0.7-3.2-0.3-6.4,0.7-9.6c-2.6-0.6-4.7,0.6-6.7,2.1
		c-1.1,0.8-1.5,2.3-2.9,2.9"/>
	<path class="st0" d="M491.6,451.4"/>
	<path class="st0" d="M479.5,433"/>
	<path class="st0" d="M126.6,257.5c0.5-1.6,1-3.2,1.4-4.8c0.2-0.8,0.1-1.4-1.2-1.5c-4.6-0.3-9.1-0.4-13.7,0"/>
	<path class="st0" d="M342.3,131c0.3-5.3-4.9-9.5-9-9.6c-0.8,3.5-0.2,7.1-0.3,10.3"/>
	<path class="st0" d="M152.3,220.8c4.3,0,6.9,2.7,7,7c0.1,6-0.3,12,0.2,18"/>
	<path class="st0" d="M411,678c2.5,0.5,5.1,0.2,7.7,0.2c3.8,0.1,22.6,0,26.4,0"/>
	<path class="st0" d="M199.1,696.7c-4.2,0.5-8.3,0.2-12.5,0.2c-6.8,0.1-13.6,0-20.4,0c-0.7,0-1.5,0.3-2.2-0.2"/>
	<path class="st0" d="M330.6,168.5c0,0.9,0,1.8,0,2.9c-5,0-10.1,0-15.1,0"/>
	<path class="st0" d="M510.4,470.9c2.7,1.3,5.8,1.4,8.6,2.2c0.2,0.1,0.5-0.1,0.7,0c1.4,1,2.6,2.2,3.5-0.7c0.3-0.9,2.3,0.1,3.5-0.5"
		/>
	<path class="st0" d="M283.3,168.5c0.1,0.9-0.2,1.8,0.2,2.9c5-0.2,9.9,0.3,14.9-0.3"/>
	<path class="st0" d="M460.4,222.5c-5.8,1.9-6.9,5-6.9,9.6c-0.1,5,0,10.1,0,15.1"/>
	<path class="st0" d="M510.8,320.6"/>
	<path class="st0" d="M106,492.2c-1,0.9-2.3,0.3-3.5,0.6c0,3.5,0,6.9,0,10.5c4.5,0,8.9-0.6,13.3,0"/>
	<path class="st0" d="M442.7,686.9c-10.2,0-20.5,0-30.7,0"/>
	<path class="st0" d="M497,280.9c-0.5,4.6,0,10.4-0.2,15"/>
	<path class="st0" d="M346.2,689.8c-12.4,0-24.8-0.1-37.2,0c-13.8,0.1-27.7,0.5-41.5,0.6c-1.5,0-3.2,0.2-4.8-0.4"/>
	<path class="st0" d="M443.2,506.2c-1.3,2-0.9,4.3-0.9,6.6c2.1,0,3.9,0,5.7,0c0.7-1.7,0.1-3.4,1-4.9"/>
	<path class="st0" d="M178.4,153.8c2.1,1.3,2.7,3,2,5.5c-1.8,6.4-3.2,13-4.9,19.4c-0.8,3-1.9,3.5-4.5,3.1"/>
	<path class="st0" d="M318.1,177.1c4.9,0,9.8,0,14.9,0c0-3,0-5.9,0-9.1c-1.8,0.1-3.8-0.4-5.8-0.4c-9.8,0-19.7-1-29.5-0.5
		c-5.1,0.3-10.2,0.7-15.4,0.9c-1.3,0-1.2,0.8-1.2,1.7c0,2.2,0,4.5,0,6.7"/>
	<path class="st0" d="M84.1,468c0.6,0.3,1.3,0.3,1.9,0.2c1.9-0.2,3.3,0.3,3.5,2.6c3.1-2.2,6.7-1.6,10-2.4"/>
	<path class="st0" d="M198.8,670.1c-7.2-0.1-14.4,0.3-21.6-0.2c-0.7-0.1-1.3,0.3-1.9,0.7c-4.4,2.7-8.9,5.3-13.4,7.7"/>
	<path class="st0" d="M198.8,674.4c-8.7,0-17.4,0-26.2,0c-0.8,0-1.6,0.3-2.4-0.2"/>
	<path class="st0" d="M196.9,687.8c-9.6,0-19.2,0-28.8,0c-0.8,0-1.6-0.2-2.4,0.2"/>
	<path class="st0" d="M445.1,665.5c-3.4-0.5-6.9-0.1-10.3-0.2c-2-0.1-4,0-6.1-0.4c2-1.3,3.9-2.7,5.9-3.9c0.4-0.3,1.2-0.2,1.9-0.2
		c2.9,0.1,5.8,0.4,8.6-0.1"/>
	<path class="st0" d="M167.2,739c-0.3-4.9-0.2-9.8-0.2-14.9c6.9,0.5,11.4,3.4,13.9,9.4c0.2,0.6,0.7,0.6,1,0.9"/>
	<path class="st0" d="M304.9,100.1c-4.6,0-12.4-0.3-17-0.2c-0.6,0-1.2,5.3-1,6.7"/>
	<path class="st0" d="M443.9,738.2c-0.2,1.2,0.7,2.6-0.1,4c4.3,0,8.4,0,12.7,0c0-4.4,0-8.8,0-13.1c-3.7,0.6-7.3,0-11,0.4
		c-0.6,1.1,0.5,3-1.6,3.1c-0.1,0,0,1.6,0,2.5C443.9,736.2,443.9,737.2,443.9,738.2"/>
	<path class="st0" d="M427.6,742.6c2.2,0,4.3,0.1,6.5,0c3.1-0.1,6.6,0.2,9.7-0.3"/>
	<path class="st0" d="M364.7,718.8c-5.3,0.6-10.6,0.1-15.8,0.2"/>
	<path class="st0" d="M510.4,420"/>
	<path class="st0" d="M510.6,404.2"/>
	<path class="st0" d="M445.1,669.4c-1.3,0.5-2.7,0.2-4.1,0.2c-6.2-0.1-12.5,0.3-18.7-0.2"/>
	<path class="st0" d="M280.2,189.6c0-4.2,0-8.5,0-12.7c5.6,0,11.2,0,16.8,0"/>
	<path class="st0" d="M196.7,738.7c0-4.2,0-8.3,0-12.5c0-1.4-0.1-2.1-1.9-1.7c-5.3,1.1-9,4.1-11.5,8.7c-0.2,0.4-0.2,0.9-0.8,0.9"/>
	<path class="st0" d="M385.2,703.5c1.6,2.8,4.3,5.6,5.2,8.8c0.2,0.6-0.1,1.2,0.7,1.9c-5.3,1.2-10.9,2.4-16,3.5"/>
	<path class="st0" d="M172,176.4c-1.3,0.2-0.8,1.4-0.9,1.9c-0.6,5.7-1.9,11.3-1.5,17c0,0.7,0.1,1.5-0.2,2.2c4.6,0.6,4.6,0.6,4.5,5.5
		c0,1.8,0.2,3.5-0.3,5.6c-3-0.1-6.2-0.2-9.3-0.2c-2.6,0-4-1.5-5.8-2.7c-2-1.5-2.4-1.4-4.3,0.7c-0.5,0.5-1,1-1.4,1.4"/>
	<path class="st0" d="M449.6,506.9c0-0.8-0.4-1.2-1.2-1.2c-2.6,0-5.1,0-8.1,0c0.9,3.1-0.3,5.8,0.1,8.6c0.6,0.8,1.7,0.2,2.4,0.8
		c0.5,2.2-0.9,4.6,0.1,7.1c-2.9-0.2-4.6,1.1-4.7,4.1c0.7,0.9,1.6,0.4,2.4,0.5c1.2,0,2.3-0.1,2.2,1.7c-0.1,1.8,1.8,0.8,2.4,1.7
		c-0.1,1.2-0.8,1.5-1.9,1.4c-2.3-0.1-4.6,0-7,0c-1.5,0-1.9,0.6-1.2,1.9c0.8,1.3,1.1,2.7,0.2,4.1"/>
	<path class="st0" d="M275.4,676.6c11,6.1,11,21.7,0.2,27.6"/>
	<path class="st0" d="M182.8,692.4c4.9,0.5,9.8,0.1,14.6,0.2"/>
	<path class="st0" d="M193.1,126.7c-1.6,1.7-2.8,3.8-4.2,5.7c0.6,1.5,1.9,2,3,2.7c1.1,0.7,2.2,1.4,3.4,2.1c-0.9,1.9-2.2,3.6-3.3,5.4
		c-2.1-1.2-4.2-2.4-6.5-3.7c-2.5,3.8-4.2,8.1-6.3,12.3c-1.1,2.2-1.2,5-3.3,6.7"/>
	<path class="st0" d="M118.4,457.9"/>
	<path class="st0" d="M181.8,739.2c-5.2,0-10.4,0-15.6,0"/>
	<path class="st0" d="M182.3,739c5.1,0.5,10.2,0.3,15.4,0"/>
	<path class="st0" d="M129.7,492.2c-0.6,2.2,0.1,4.5-0.4,6.7c-0.7,0.3-1.4,0.4-2,0.2c-3-0.9-5.3-4.2-5.3-7.4"/>
	<path class="st0" d="M154.4,713.8c0.3,5,0.4,10.1,0,15.1c0,0.4,0.1,0.8,0.2,1.2"/>
	<path class="st0" d="M315.2,167.8c0.3,2-0.2,3.9-0.6,5.7c-0.3,1.8,0.2,2.7,1.8,3.4c-0.2,0.7-0.4,1.5-1.3,1.8
		c-1.3-1-2.5-1.1-4.3-0.2c-2.5,1.2-5.2,1.5-7.9,0.1c-1-0.5-2.4-0.9-3.4,0.2c-0.8-0.4-1-1.1-1.4-1.8c2.1-1.1,1.4-2.9,1-4.5
		c-0.5-1.7-0.4-3.4-0.4-5.1"/>
	<path class="st0" d="M443.6,738.2c-4.5,0-9,0-13.4,0c-5.9,0-12.3,0.1-18.2,0.1"/>
	<path class="st0" d="M412,691.2c1.8-0.6,3.5,0,5.3,0c8.5-0.1,17,0,25.4,0"/>
	<path class="st0" d="M445.1,673.7c-4.6,0.6-9.1,0.1-13.7,0.2"/>
	<path class="st0" d="M528.6,253.4c-0.8-0.4-1.6-0.2-2.4-0.2c-0.5,0-1.2,0.2-1.4,0c-2.1-2.9-4,0.1-6,0c-0.9,0-1.8,0-2.6,0"/>
	<path class="st0" d="M427.1,532.3c0,5.9,0,11.8,0,17.8c0,0.6-0.3,1.3,0.2,1.9"/>
	<path class="st0" d="M408.9,694.8c3.6,0.9,8.7,0.4,12.4,0.5c1.8,0.1,5,0.9,6.7,0"/>
	<path class="st0" d="M251.9,105.1c-4.1,2.2-8,4.8-12.3,6.3c-2.7,1-6,0.2-8.6-1.5c-1.6-1.1-3-2.5-3.9-4.5c3-2,6.3-3.7,9.6-5.3"/>
	<path class="st0" d="M507,447.4"/>
	<path class="st0" d="M155.9,216.2c3.1,1.6,6.2,3.3,7.6,6.7c0.5,1.3,0.7,2.7,1,4.1"/>
	<path class="st0" d="M238.9,112.1c-0.8,2-2,3.8-2.5,6c-0.8,3,0.4,5.1,1.3,7.6c3.5-1.5,6.4-3.4,9.7-4.9c-1.2-3.4-3.3-6.3-4.8-9.6"/>
	<path class="st0" d="M460.9,226.6c-2.5,0.2-2.9,2.1-2.9,4.1c0,5.5,0,11,0,16.6"/>
	<path class="st0" d="M189.7,683.5c-7,0-13.9,0.1-20.9,0c-1.6,0-3,0.5-4.6,0.5c-2.3,0.1-2.7-0.4-2.9-2.6c-0.2-2.3,1.1-2.2,2.7-2.2
		c10.8,0,21.6,0,32.4,0c0.8,0,1.6,0,2.4,0"/>
	<path class="st0" d="M220.2,103.2c1.3,1.2,2.1,2.7,3.1,4.4c-2.5,1.6-4.5,3.8-7.2,4.9"/>
	<path class="st0" d="M172.2,209c-1.1,1.7,0.6,3.8-1.1,5.8c-2-0.2-4.4,0.4-6.5-0.4c0-2,0-3.8,0-5.6"/>
	<path class="st0" d="M304.2,673.4c0.1,3.8-0.3,7.5,0.2,11.3"/>
	<path class="st0" d="M165.7,692.4c3.8,0.5,7.5,0.1,11.3,0.2"/>
	<path class="st0" d="M498.4,268.1"/>
	<path class="st0" d="M439.6,162.2c-0.7,0-1.5-0.1-2.2,0.2c0.8,4.8,4,7.3,8.4,8.6"/>
	<path class="st0" d="M127.6,257.8c-4.2,0-8.3,0-12.5,0"/>
	<path class="st0" d="M244.2,282.2c-0.5,0.9-1.2,1.7-1.3,2.9c-0.1,1.5-1.7,2.7-2.8,2.3c-1.8-0.7-3.1,0.6-4.6,0.6"/>
	<path class="st0" d="M518.8,311.5"/>
	<path class="st0" d="M300.1,8.4c-0.8-0.1-1.3,0.6-1.4,1c-0.3,3.1-1.8,5.8-2,8.9"/>
	<path class="st0" d="M182.3,522"/>
	<path class="st0" d="M264.1,136.1c-0.5-2.1-0.3-5-0.6-7.2c-0.3-2.7,0.4-3.2,2.8-2.1c2.7,1.2,5.2,3.6,5.8,6.7c10-2.4,10-2.4,10-2.4"
		/>
	<path class="st0" d="M482.8,281.3c-0.7,5.9,3.1,10.7,6.8,12.9c1.3,0.7,4.8,1.7,7.2,1.7"/>
	<path class="st0" d="M445.3,656.6c0.5,3.6,0.1,7.2,0.2,10.8c0.1,4.2,0,8.5,0,12.7c0,0.8,0.2,1.6-0.4,2.4c-0.5,0.1-1.2,0.2-1.9,0.4
		c-0.5,2.8,0.2,5.5-0.4,8.2c0,0.1,0.2,0.1,0.2,0.2c0.3,1.2,3.3,3.8,4.6,3.8c2.8,0,5.7,0.1,8.4-0.7"/>
	<path class="st0" d="M203.2,115.9c-3.4,3.1-6.2,6.7-9.4,10.1"/>
	<path class="st0" d="M169.1,168.2"/>
	<path class="st0" d="M359.6,30c-1.8-2-3.6-3.9-5.4-6c-3.1,1.7-5.8,3.5-8.5,5.5"/>
	<path class="st0" d="M411,675.6c3.7-3,8.1-1.9,12.2-1.8c1.3,0,6.9,0,8.2,0.2"/>
	<path class="st0" d="M371.4,715.9c-1.1,1-1.7,2.2-0.9,3.6c0.5,0.9,1.6,1.5,2.6,1.2c1.1-0.4,1.9-1.2,2-2.6c0.1-1.4-1.2-2.3-1.7-2.3
		c-3.3,0.3-3.5-2.3-4.6-4.2c-0.3-0.6-0.6-1.7-1-2.3"/>
	<path class="st0" d="M445.1,609.1c-0.4,3.2-0.4,6.4,0,9.6"/>
	<path class="st0" d="M342.6,130.8c2.2-2.9,4.6-5.3,8.6-5c0,3.4,0,6.6,0,9.8"/>
	<path class="st0" d="M160.9,605.8c0.4,3.2,0.4,6.4,0,9.6"/>
	<path class="st0" d="M195.2,107c0.9,0.8,1.9,1.6,3.1,2.7c-3.1,3.6-6.2,7.1-9.4,10.7c0.1,0.7,0.7,0.8,1.1,1.5
		c2.8-2.8,5.2-5.9,7.8-8.9"/>
	<path class="st0" d="M467.2,228.2c-0.1,6.3-0.2,12.6-0.2,19"/>
	<path class="st0" d="M152,208.6c-1,1.5-3.1,1.9-3.8,3.6c0.7,0.6,0.6,1.6,1.2,2.1c3.7,2.9,1.8,7,2.6,10.6c0.2,0.8-0.6,1.2-1.4,1.4
		c-2.9,0.9-4.9,3.9-4.8,7c0.1,4.2,0,8.3,0,12.5"/>
	<path class="st0" d="M492.6,451.4"/>
	<path class="st0" d="M177.5,586.1"/>
	<path class="st0" d="M362.3,106.6c3,1.7,6.1,3.4,9.1,5"/>
	<path class="st0" d="M150.4,226.8c0,4.6,0,9.1,0,13.7c0,1.8,0,3.5,0,5.3"/>
	<path class="st0" d="M113.6,505.7c5.9,0.4,11.8,0.4,17.8,0"/>
	<path class="st0" d="M90.4,248.2c-0.2-2.3-0.8-4.6,0.7-7.1c1.3,1.6,1.2,3,0.5,4.2"/>
	<path class="st0" d="M462.4,228c0,6.4,0,12.8,0,19.2"/>
	<path class="st0" d="M160.9,175.2c0.2,1.4,1.7,0.1,2.1,1.1c0.3,0.5-0.2,1-0.2,1.6c1.2,0.5,2.5,1,4.2,0.9c0.6-3.3,2.3-6.5,2.3-10.1
		c0-1.2,0.9-1.9,1.9-2.1c4-1,4.3-4.3,4.8-7.5c0.1-0.9-0.3-1.5-1.4-1.5c-2.1,0-4.1-1.1-6.2-1.1c-1.5,5.7-3,11.5-4.4,17.3
		c-0.2,0.7-0.5,1.3-0.8,1.9"/>
	<path class="st0" d="M370,699.1c0.2,3.5,0.7,6.9,1.2,10.3c0.3,2,0.3,4,0.5,6"/>
	<path class="st0" d="M399.7,704.9c-0.7,1.6,0.1,3.2,0,4.8c-0.1,3.9-0.3,6.8-0.3,10.8"/>
	<path class="st0" d="M110.3,234c-0.9,0.8-1.8,1.6-2.6,2.4c-1.1,1.1-1.1,3.2,0,4.1c1.2,1,2.5,1,3.6-0.2c0.9-0.9,1.8-1.8,2.6-2.6"/>
	<path class="st0" d="M148.9,496.8c-1.8,2-3.4,4.1-5.3,6c-1.1,1.1-0.7,1.9,0.3,2.7"/>
	<path class="st0" d="M390.8,714.7c0.6,1.7,0.5,3.5,0.5,5.6c-4.3-0.4-12.3-1.3-16.3-2"/>
	<path class="st0" d="M457.8,500.2c1,1.6,2,3.1,2.8,4.8c0.7,1.4,2.5,2.5,1.6,4.6c-0.1,0.2,0.5,0.8,0.8,1.2c1,1,1.9,2.1,3.1,2.9"/>
	<path class="st0" d="M228.1,293.3c0.5,0.7,0.1,1.4,0.3,2.4c3.9,0,7.9,0,11.9,0c0.9,0,1.8-0.2,2.6,0.2"/>
	<path class="st0" d="M218.8,237.1c0.4,4.3,2.8,7.8,4.8,11.5"/>
	<path class="st0" d="M475.3,228.2c-1,2.9-1.9,5.7-3.4,8.4"/>
	<path class="st0" d="M471.2,228.2c0.2,2.8-0.3,5.6,0.2,8.4"/>
	<path class="st0" d="M342.3,131c0.1,0.7-0.3,1.4-0.4,2.2"/>
	<path class="st0" d="M363.5,701c1.4,2.7,2.9,5.4,4.3,8.2"/>
	<path class="st0" d="M371.6,112.3c-1.7,2.7-3.6,6.6-5.5,9.1"/>
	<path class="st0" d="M193.1,660.5c-2.5,1.6-5.3,2.5-7.7,4.3c0.2,1,1.5-0.1,1.7,1"/>
	<path class="st0" d="M419.2,297.4c-0.5-1.9-0.1-3.8-0.3-5.8c-0.6-0.4-1.4-0.1-2.1-0.2"/>
	<path class="st0" d="M256,30.5c1.2-1.3,2.7-2.4,3.6-4.1c0.5-0.8,1.2-1.4,2.4-0.5c2.3,1.6,5.1,2.5,7.4,4.1"/>
	<path class="st0" d="M365.2,35.3c0.4,0.6,0.7,1.2,0,1.9c-2,2.2-3.2,4.9-5.1,7.2"/>
	<path class="st0" d="M448.7,497.3c3.6,0,7.2,0,10.8,0c0.1,0.2,0.2,0.3,0.3,0.5c-3.7,3.1-6.9,6.9-10.6,10"/>
	<path class="st0" d="M518.3,304.6c0,5,0,10.1,0,15.1"/>
	<path class="st0" d="M154.7,699.8c0.2,2.6,0.7,5.1-0.2,7.7"/>
	<path class="st0" d="M158.8,506.4c-3,1.5-4.8,4.5-7.7,6.2c-0.5-0.4-1.1-0.8-1.6-1.2"/>
	<path class="st0" d="M154.2,699.8c-0.2,2.6-0.7,5.1,0.2,7.7"/>
	<path class="st0" d="M375.8,699.1c-0.9,5-2.1,11.4-3,16.3"/>
	<path class="st0" d="M130,491.8c-1.6-0.5-3.2-0.3-4.8-0.2c-5.8,0.3-11.7-0.5-17.5-0.3c-0.8,0-1.7-0.1-1.4,0.8c1,3.1,0,6.1,0.2,9.1
		c0.1,1.5,0,3,0,4.6"/>
	<path class="st0" d="M172.7,157.7c-0.9,3-2,5.9-2.2,9.1"/>
	<path class="st0" d="M254.5,31.9c-1.3,1.1-2.3,2.5-3.8,3.4c-1.5,0.9-1.5,2.2-0.3,3.6c1.7,1.9,3.2,4,4.8,6"/>
	<path class="st0" d="M387.7,708c-4,3-9,5.7-13,8.7"/>
	<path class="st0" d="M162.4,209c-3.5,2.9-6.1,6.9-10.1,9.4"/>
	<path class="st0" d="M266.5,157.2c-2.1,1.7-4.1,3.4-6.3,5c-1,0.8-1,1.6-0.5,2.7"/>
	<path class="st0" d="M435.2,538.1c-2.7,1.1-5.4,0.2-8.2,0.5"/>
	<path class="st0" d="M205.3,713c-2.4,0.5-4.8,0.1-7.2,0.2"/>
	<path class="st0" d="M155.4,229c-0.2-0.1-0.5,0-0.5,0.2c0.2,5.5-0.3,11,0.2,16.6"/>
	<path class="st0" d="M307.6,10.1c0,2.4,0,4.8,0,7.2"/>
	<path class="st0" d="M400.9,705.4c-0.4,4.7-0.3,11,0.1,15.7"/>
	<path class="st0" d="M308-5.3c-0.1,4.6,0.1,9.1-0.2,13.7"/>
	<path class="st0" d="M94.9,303.1c0.5,4.6,0.1,9.3,0.2,13.9"/>
	<path class="st0" d="M314.8,2.4c-2.2-1-4.5-0.2-6.7-0.5"/>
	<path class="st0" d="M451.6,617.3c0.4,0,1.1-0.1,1.2,0c1,2.6,3.4,1.2,5.1,1.9"/>
	<path class="st0" d="M230,228.7c0.5,0.8,1,1.6,1,2.6c0,3.1,0.4,6.1,1.2,9.1"/>
	<path class="st0" d="M382.6,702.1c-1.2,2.4-3.7,6.1-5.2,8.3"/>
	<path class="st0" d="M121.6,496.1c-1.7,2-2.4,4.7-4.3,6.5"/>
	<path class="st0" d="M240.4,259.2c0.6,2,0.7,4.3,3.1,5.3c0.3,0.1,0.4,0.5,0.2,0.7c-0.9,1.6,0.7,2.4,1,3.6"/>
	<path class="st0" d="M94.2,402.7c-0.6,4.5-0.1,9-0.2,13.4"/>
	<path class="st0" d="M375.5,114c2.2,1.1,4.5,2.1,6.5,3.6"/>
	<path class="st0" d="M429,695c0-9.7,0-19.4,0-29c0-0.2-0.3-0.5-0.5-0.7c-0.9-0.2-1.5,0.6-2.1,1c-3.5,2.4-7.3,4.2-10.6,6.9"/>
	<path class="st0" d="M357.1,705.9c2.4,1.4,4.8,3.7,7.1,5.2"/>
	<path class="st0" d="M101.4,301.9c-1.8,0.2-3.6,0.6-5.5,0.8c-2.9,0.2-2.6,0.4-2.5,3.1c0.2,3,0.3,6.1-0.2,9.1"/>
	<path class="st0" d="M122,495.1c0,3.5-0.6,7,0,10.6"/>
	<path class="st0" d="M238.2,112.8c-2.4,0.6-4.3,2.2-6.5,3.4"/>
	<path class="st0" d="M97.3,239.5c-1.4,0.4-2.9,0.2-4.3,0.7c-0.8,0.2-1.4,0.3-1.4,1.3"/>
	<path class="st0" d="M313.8,8.4c-4.1,0.7-8.3-0.1-12.5,0.4c-1.2,0.2-0.6-1.2-0.7-1.9"/>
	<path class="st0" d="M411.2,712.8c-3.5,0-7,0-10.6,0"/>
	<path class="st0" d="M359.6,31c-2,1.9-3.8,4-6,5.8"/>
	<path class="st0" d="M255.5,31.7c1.9,1.9,3.8,3.8,5.8,5.8"/>
	<path class="st0" d="M131.9,503.8c-0.4,1.1-0.5,2,1.2,2c0.9,0,2.1-0.5,2.9,0.4"/>
	<path class="st0" d="M231,229c0.1-0.1,0.2-0.2,0.2-0.2c-0.1-3.6-0.1-3.6-4.1-3.6c-2.4,0-4.8,0-7.4,0c0.1,7.1-0.6,14.2,3.4,20.6"/>
	<path class="st0" d="M307.6,1.7c-1.9,0.5-3.8,0.1-5.8,0.2"/>
	<path class="st0" d="M377.4,710.4c-0.9,2-2.6,3.5-3.4,5.6"/>
	<path class="st0" d="M100.2,401.8c-2,0.5-4.2,0.3-6.3,0.6c-1.5,0.2-1.2,1.1-1.7,1.8"/>
	<path class="st0" d="M360.1,30.5c1.1,1.3,2.2,2.6,3.4,3.8c1,1,2,0.9,2.7-0.5c-1-1.7-2.7-2.7-3.7-4.3"/>
	<path class="st0" d="M380.2,713c2.3,3,1.8,6.5,0.6,9.6c-0.3,0.8-0.8,1.4-1.2,2.2"/>
	<path class="st0" d="M446.8,695c-5.1,0-13.6-0.1-18.7,0.2"/>
	<path class="st0" d="M198.8,657.6c-2,0.4-3.5,1.8-5.3,2.6"/>
	<path class="st0" d="M89.4,478.1c-1.4,2.1-3.5,0.7-5.3,1.2"/>
	<path class="st0" d="M523.8,303.8c-1.8,0.2-2.4,0.9-2,2.9c0.6,3.6-0.2,7.3-0.4,11"/>
	<path class="st0" d="M93,304.8c-0.8,0.6-1.6,0-2.3,0c-0.7-0.7,0.3-2.3-1.5-2.2"/>
	<path class="st0" d="M445.3,172.1"/>
	<path class="st0" d="M140.3,240.5c0.6,1.7,0.1,3.5,0.2,5.3"/>
	<path class="st0" d="M258.8,19.9c2.2,2.3,2.2,2.3-0.2,5.3"/>
	<path class="st0" d="M85.1,240c-0.4,3.4-0.4,6.7,0,10.1"/>
	<path class="st0" d="M154.4,613.4c-1.2,0.4-1.9,0.1-1.9-1.2c0-1.4-0.2-2.9,0-4.3c0.3-2.4,0.4-2.4-2-2.4c-0.6,0-1.3,0-1.9,0"/>
	<path class="st0" d="M522.8,478.1c0.4,0.5,0.1,0.9,0,1.4c-0.4,4.7-0.7,4.1,3.8,4.6"/>
	<path class="st0" d="M230.3,225.8c0.1,0.8-0.3,1.6,0.1,2.5c-3.6,0.5-7-0.2-10.2,0.4"/>
	<path class="st0" d="M229.6,234.7c-3.1,0.2-6.2,0.5-9.4,0.7"/>
	<path class="st0" d="M206.2,706.3c0.1,3.5-0.5,9-0.4,12.5c0,0.3,0,0.6,0.2,0.7"/>
	<path class="st0" d="M230,229.9c-0.5,1.8-0.4,3.7,0,5.5c0.3,1.4,0.2,2.2-1.5,2.2c-1.2,0-2.4,0.4-3.6,0.7"/>
	<path class="st0" d="M528.8,248.2c-2.2-0.1-4.5,0.3-6.7-0.2"/>
	<path class="st0" d="M220.2,232.1c3-0.5,6.1-0.1,9.1-0.2"/>
	<path class="st0" d="M154.9,708.7c-0.1,1.5,0.3,3.1-0.2,4.6"/>
	<path class="st0" d="M154,708.7c0.1,1.5-0.3,3.1,0.2,4.6"/>
	<path class="st0" d="M155.4,235.9c3.1,0.5,6.2,0.2,9.4,0c0.4,0,0.8,0.1,1.2,0.2"/>
	<path class="st0" d="M366.4,34.3c0.7,0.6,1.3,1.3,1.9,1.8c1.2-0.4,1.9-1.1,2.6-1.8"/>
	<path class="st0" d="M456.4,207.6c-1.5,1.2-3,2.4-4.6,3.6"/>
	<path class="st0" d="M429.5,576.5c0,3.5,0,7,0,10.6"/>
	<path class="st0" d="M212.8,107.8c1,1.4,1.9,2.9,2.9,4.3"/>
	<path class="st0" d="M364.2,711.1c1.5,0.8,4.1,4.2,6.1,3.7"/>
	<path class="st0" d="M88.2,402c1.3-0.2,1.7,0.2,1.8,1.7c0,1.8-0.4,3.5-0.3,5.3"/>
	<path class="st0" d="M466.9,238.1c-4.3-0.2-8.6,0.3-13-0.2"/>
	<path class="st0" d="M157.1,205.2c-0.8,1.8-2.5,2.6-3.8,3.8"/>
	<path class="st0" d="M92.3,405.1c0.4,2.9,0.4,5.8,0,8.6"/>
	<path class="st0" d="M453.5,238.1c-1.9,0-3.8,0-5.8,0"/>
	<path class="st0" d="M428,733.7c-0.3,2.5-0.3,6.4-0.3,8.9"/>
	<path class="st0" d="M152.5,208.3c0.2,0.4,1.1,0.6,0.5,1.2c-1.4,1.2-2.3,2.9-4.1,3.6"/>
	<path class="st0" d="M430,570.2c-0.2,1.9,0.3,3.9-0.2,5.8"/>
	<path class="st0" d="M185.4,665c-3,1-5.5,3-8.2,4.6"/>
	<path class="st0" d="M154.9,236.2c-3.9-0.1-7.9,0.4-11.8-0.7c0.4-1.4,1.5-2.2,2.2-3.4"/>
	<path class="st0" d="M142.7,235.9c-1.8,3.2-4.1,6.1-5.8,9.4"/>
	<path class="st0" d="M182,667.4c0.4,0.8,0.2,1.6,0.2,2.4c0,8.9,0,17.8,0,26.6"/>
	<path class="st0" d="M253.1,30c-2.3,1.9-3.8,4.5-6.4,6.6c-0.7-0.7-1.4-1.4-2-2"/>
	<path class="st0" d="M458,609.1c-0.2,0.1-0.5,0.2-0.7,0.2c-3.9,0.3-3.8,0.3-3.9,4.1c0,1.1,0.3,2.3-0.2,3.4"/>
	<path class="st0" d="M142.9,506.4c-0.7,0.2-0.9-0.6-1.5-0.9c-0.9,0.9-1.9,1.9-2.8,2.8"/>
	<path class="st0" d="M136.4,506.6c2.1,1.6,3.7,3.8,5.5,5.8"/>
	<path class="st0" d="M148.4,512.4c0.3,0.3,0.6,0.6,1,1c-0.6,1.3-1.8,2-2.7,3"/>
	<path class="st0" d="M356,19.2c-0.5,0.6-1.2,0.9-1.5,1.7c1.5,3,4.7,4.4,6.5,7.2"/>
	<path class="st0" d="M198.8,661.2c-1.8,0.3-3.7,0.5-5.5,0"/>
	<path class="st0" d="M152.3,224.9c1.5,0.5,2.8,1.2,2.6,3.1"/>
	<path class="st0" d="M300.4,2.4c-1.3,0.2-2.8-0.6-3.8,0.7"/>
	<path class="st0" d="M152.8,613.9c-1,2.1-2.9,0.9-4.3,1.2"/>
	<path class="st0" d="M209.6,720c0.4-2.2,1-4.3,0-6.5"/>
	<path class="st0" d="M190,121.9c-0.3,0.4-0.9,0.6,0,1.2c1.2,0.9,2.3,2,3.4,3.1"/>
	<path class="st0" d="M173.9,165.6c0.2,1.4-0.3,2.8-0.7,4.1c-1,2.8-1.2,5.7-0.8,8.9c-3.2-0.3-6.1-1.3-9-2"/>
	<path class="st0" d="M460.7,205.9c-1,1.2-2,2.3-4.1,1.2c1,1.9,2.1,3.2,3.9,3.9"/>
	<path class="st0" d="M257.4,25.7c-1.1,1.1-2.2,2.2-3.4,3.4"/>
	<path class="st0" d="M170,168.2c2.5,0.7,5.1,0.9,7.4,1.9"/>
	<path class="st0" d="M461.9,509.5c-1.1,0.9-2.3,1.7-2.9,3.1"/>
	<path class="st0" d="M188.8,665.3c1.1,0.6,2.4,0.5,3.6,0.5"/>
	<path class="st0" d="M467.4,237.8c1.2,0.5,2.4,0.1,3.6,0.2"/>
	<path class="st0" d="M224.5,238.6c-1.2-0.1-2.3,0.8-3.6,0.5"/>
	<path class="st0" d="M520.9,474.7c-0.3,2.2-0.4,4.5,0,6.7"/>
	<path class="st0" d="M228.4,241c-2.2,0.5-4.3,1.2-6.2,2.2"/>
	<path class="st0" d="M197.4,111.6c1,1.6,1.6,0.2,2.5-0.5c1,1.9,3.5,2.3,3.7,4.6"/>
	<path class="st0" d="M89.9,409.4c-0.4,1.4-0.1,2.7,0,4.1c0.1,1.2,0.6,2.9-1.7,2.6"/>
	<path class="st0" d="M88.9,471.4c-0.3,2-0.7,3.9,0.5,5.8"/>
	<path class="st0" d="M523.3,251c0.8-2.3,0.9-4.5-0.8-7.1c-1.3,2.6-0.9,4.9-0.7,7.1"/>
	<path class="st0" d="M435,534.5c-0.8,1-0.6,2.1,0,3.1"/>
	<path class="st0" d="M142.9,506.9c0-0.6,0.4-0.9,0.8-1.3c1.5,0.4,2,2,3.3,2.7c-1.5,1.5-2.8,2.8-4.2,4.2"/>
	<path class="st0" d="M231,288c1,0,2.1,0,3.1,0"/>
	<path class="st0" d="M224.5,225.4c-0.3,3.2,0.3,6.4-0.2,9.6"/>
	<path class="st0" d="M167.4,178.8c1,0.6,2.1,0.8,3.1,1.2"/>
	<path class="st0" d="M112.4,257.8c-1,0-2.1,0-3.1,0"/>
	<path class="st0" d="M154.9,607.2c-0.1,1.9,0.2,3.9-0.2,5.8"/>
	<path class="st0" d="M233.6,242.4c0.2,1.1,1,1.9,1.4,2.9"/>
	<path class="st0" d="M438.6,264"/>
	<path class="st0" d="M189.7,112.3c1,0.9,1.9,1.8,2.9,2.6"/>
	<path class="st0" d="M436.7,678.2"/>
	<path class="st0" d="M151.8,202.8c-0.8,0.8-1.7,1.5-2.6,2.4c1,1,1.9,1.9,2.8,2.8"/>
	<path class="st0" d="M246.6,274.6c0.1,1-0.1,2-0.5,2.9"/>
	<path class="st0" d="M91.8,245.8c0.7,1-0.3,1.9-0.2,2.9"/>
	<path class="st0" d="M230,237.6c0.7,0.8,0.5,2.1,1.2,2.9"/>
	<path class="st0" d="M184.7,118.8c1,0.8,2.1,1.4,2.9,2.4"/>
	<path class="st0" d="M224.3,235.4c0.4,2,0.3,4.2,1.4,6"/>
	<path class="st0" d="M377.7,709.9c-4.2-2.1-9.9-2.4-13,1.6"/>
	<path class="st0" d="M246.1,278.9c-0.9,0.5-0.4,1.9-1.4,2.4"/>
	<path class="st0" d="M169.8,169.7c0.9,0.8,1.5,1.9,2.2,2.9"/>
	<path class="st0" d="M143.2,507.4c0.6,0.9,1.2,1.8,2.4,2.2"/>
	<path class="st0" d="M122.3,281.8"/>
	<path class="st0" d="M146.8,208.3c0.5,1,1.5,1.6,2.2,2.4"/>
	<path class="st0" d="M447,506.2c-0.2,1.3,1,1.2,1.7,1.7"/>
	<path class="st0" d="M90.4,471.4c0.4,1.8,0.4,3.5,0,5.3"/>
	<path class="st0" d="M377.7,710c1.2,0.7,2,1.9,2.4,3"/>
	<path class="st0" d="M426.8,553.2c0,0.9,0,1.8,0,2.6"/>
	<path class="st0" d="M146,510.5c0.7,0.6,1.1,1.5,2.4,1.5c1.9-1.4,0-2-1-2.9"/>
	<path class="st0" d="M239.4,254.9c-0.1,0.8,0.8,1.5,0.5,2.4"/>
	<path class="st0" d="M224.5,250.1c0.2,0.8,1,1.4,1,2.4"/>
	<path class="st0" d="M180.4,692.6c-0.8,0-1.6,0-2.4,0"/>
	<path class="st0" d="M425.4,113.8c-0.8,0.6-1.5,1.2-2.4,1.9c0.2,0.4,0.5,1,0.7,1.5"/>
	<path class="st0" d="M445.1,654.7c-0.9,0.3-1.7,0.8-2.4,1.4"/>
	<path class="st0" d="M245.6,270.2c-0.1,0.8,0.8,1.5,0.5,2.4"/>
	<path class="st0" d="M274.7,705.1c0.5,0.8,0.1,1.6,0.2,2.4"/>
	<path class="st0" d="M216.1,105.1c0.5,0.7,1,1.4,1.4,2.2"/>
	<path class="st0" d="M454.2,551c-0.1,1.4-0.2,2.7-0.2,4.1"/>
	<path class="st0" d="M183.2,262.3"/>
	<path class="st0" d="M469.6,244.8c-0.7,0.6-1,1.3-1,2.2"/>
	<path class="st0" d="M274.9,673.9c0,0.7,0.1,1.5-0.2,2.2"/>
	<path class="st0" d="M463.3,208.3c-0.7,0.6-1.4,1.1-2.1,1.7c-1.1-0.1-1.6-0.9-2.2-1.7"/>
	<path class="st0" d="M374,126.5c1,0.4,1.8,1.7,2.9,1.9"/>
	<path class="st0" d="M364,26.6c-0.6,0.6-1.1,1.3-1.7,1.9"/>
	<path class="st0" d="M251.2,27.1c0.6,0.6,1.3,1.3,1.9,1.9"/>
	<path class="st0" d="M236,247.2c0.3,0.6,0.6,1.3,1,1.9"/>
	<path class="st0" d="M167.9,209c0.1,0.6-0.3,1.3,0.3,1.8c-0.4,0.6-0.9,0.3-1.3,0.4"/>
	<path class="st0" d="M238,251c-0.1,0.7,0.8,1.2,0.5,1.9"/>
	<path class="st0" d="M226.4,254.4c0.6,0.5,0.5,1.4,1,1.9"/>
	<path class="st0" d="M114.6,257.5c-0.5,0.5-1.1,0.1-1.7,0.2"/>
	<path class="st0" d="M227.9,258.2c0.2,0.5,0.7,1,0.5,1.7"/>
	<path class="st0" d="M121.8,506.2c0,0.6,0,1.1,0,1.7"/>
	<path class="st0" d="M299.2,176.6c0.3,0.6,0.6,1.1,1,1.7"/>
	<path class="st0" d="M426.8,121.7c-0.6,0.6-1.1,1.1-1.7,1.7"/>
	<path class="st0" d="M522.8,474.7c0.6,0.9-0.2,2,0.2,2.9"/>
	<path class="st0" d="M532.2,412.8"/>
	<path class="st0" d="M426.1,120c0.8-0.6,0.8,2.4,1.9,0.5"/>
	<path class="st0" d="M315,176.9c-0.2,0.4-0.5,0.8-0.7,1.2"/>
	<path class="st0" d="M424.7,118.1c0.5,0.2,0.3,1,1,1"/>
	<path class="st0" d="M268.4,156.2c-0.4,0.3-0.5,1.7-1.4,0.5"/>
	<path class="st0" d="M169.3,638.4c0,0.3,0.1,0.5,0.5,0.5"/>
	<path class="st3" d="M316.7,577c-1.2,0.2-1,1.1-1,1.9c0,2.5,0,5,0,7.6c14.2,0.7,28.5,0.5,42.8,0.5c0-3.4,0-6.5,0-10.1
		c-14,0-27.8,0-41.6,0"/>
</g>
<path class="st3" d="M191.7,323.5c-3-0.6-6,0-9-0.3c-3,7.3-5.1,14.7-6.3,22.4c-1,6.3-1.2,12.5-1,18.8c0.3,7.7,1.6,15.2,4,22.6
	c0.8,2.4,1.7,4.8,2.4,7.2c0.4,1.4,1.2,1.8,2.7,1.7c2.3-0.1,4.7,0,7.3,0c-2.7-6.1-4.7-12.1-5.9-18.3c-1.8-8.7-2.6-17.4-1.6-26.2
	c1.1-9.3,3.3-18.4,7.3-27.2c0.1-0.1,0-0.3,0-0.5"/>
<path class="st3" d="M245.6,328.6c-3.4-0.5-6.8,0-10.2-0.3c-3.4,6.3-5.8,12.7-7.2,19.3c-1.1,5.4-1.3,10.7-1.1,16.1
	c0.3,6.6,1.8,13.1,4.6,19.4c0.9,2.1,1.9,4.1,2.7,6.2c0.5,1.2,1.4,1.5,3.1,1.5c2.7-0.1,5.3,0,8.3,0c-3-5.3-5.3-10.4-6.7-15.7
	c-2-7.5-2.9-15-1.8-22.5c1.2-8,3.8-15.8,8.2-23.4c0.1-0.1,0-0.3,0-0.4"/>
<path class="st3" d="M178,323.5c-2.8-0.6-5.7,0-8.6-0.3c-2.9,7.3-4.9,14.7-6,22.4c-1,6.2-1.1,12.5-0.9,18.7
	c0.3,7.6,1.5,15.2,3.8,22.6c0.8,2.4,1.6,4.8,2.3,7.2c0.4,1.4,1.2,1.8,2.6,1.7c2.2-0.1,4.5,0,7,0c-2.5-6.1-4.5-12.1-5.7-18.2
	c-1.7-8.7-2.5-17.4-1.5-26.2c1-9.3,3.2-18.4,6.9-27.1c0.1-0.1,0-0.3,0-0.5"/>
<path class="st3" d="M363.6,329.9c3.9-0.5,7.8,0,11.7-0.3c4,6.3,6.7,12.7,8.3,19.3c1.3,5.4,1.6,10.7,1.3,16.1
	c-0.4,6.6-2.1,13.1-5.3,19.4c-1,2.1-2.2,4.1-3.1,6.2c-0.5,1.2-1.6,1.5-3.6,1.5c-3.1-0.1-6.2,0-9.5,0c3.5-5.3,6.1-10.4,7.8-15.7
	c2.3-7.5,3.4-15,2.1-22.5c-1.4-8-4.4-15.8-9.5-23.4c-0.1-0.1,0-0.3,0-0.4"/>
<path class="st3" d="M434.6,325.4c2.8-0.6,5.7,0,8.6-0.3c2.9,7.3,4.9,14.7,6,22.4c1,6.2,1.1,12.5,0.9,18.7
	c-0.3,7.6-1.5,15.2-3.8,22.6c-0.8,2.4-1.6,4.8-2.3,7.2c-0.4,1.4-1.2,1.8-2.6,1.7c-2.2-0.1-4.5,0-7,0c2.5-6.1,4.5-12.1,5.7-18.2
	c1.7-8.7,2.5-17.4,1.5-26.2c-1-9.3-3.2-18.4-6.9-27.1c-0.1-0.1,0-0.3,0-0.5"/>
<path class="st2" d="M423,325.4c2.8-0.6,5.7,0,8.6-0.3c2.9,7.3,4.9,14.7,6,22.4c1,6.2,1.1,12.5,0.9,18.7c-0.3,7.6-1.5,15.2-3.8,22.6
	c-0.8,2.4-1.6,4.8-2.3,7.2c-0.4,1.4-1.2,1.8-2.6,1.7c-2.2-0.1-4.5,0-7,0c2.5-6.1,4.5-12.1,5.7-18.2c1.7-8.7,2.5-17.4,1.5-26.2
	c-1-9.3-3.2-18.4-6.9-27.1c-0.1-0.1,0-0.3,0-0.5"/>
<path class="st3" d="M288.6,419.4c-9.8-0.9-18.8-3.9-26.9-9c-0.8-0.5-1.7-1-2.7-1.6c-1.9,2.3-3.9,4.6-5.9,7.1
	c12.2,8.3,26,12.1,41.1,13c0.5-1,1.4-7.1,1.2-8.7c-2.2-0.2-4.4-0.4-6.6-0.6"/>
<path class="st3" d="M290.1,407.6c-8.9-0.8-17.1-3.7-24.4-8.8c-0.7-0.5-1.5-1-2.5-1.6c-1.8,2.3-3.5,4.7-5.4,7.2
	c11,8.2,23.6,11.9,37.3,12.6c0.4-1,1.3-7.1,1.2-8.7c-2-0.2-4-0.4-6-0.6"/>
<path class="st2" d="M287.5,430.8c-10.5-0.6-20.2-3.4-29-8.3c-0.9-0.5-1.8-0.9-3-1.5c-2,2.4-3.9,4.8-6,7.4
	c13.3,8,28.3,11.5,44.4,11.9c0.5-1,1.2-7.2,1-8.8c-2.3-0.1-4.7-0.3-7.1-0.4"/>
<path class="st3" d="M322.3,420.3c9.8-0.7,18.9-3.4,27.1-8.3c0.8-0.5,1.7-0.9,2.8-1.5c1.9,2.4,3.7,4.8,5.7,7.3
	c-12.4,8-26.4,11.4-41.5,11.9c-0.4-1-1.2-7.2-1-8.7c2.2-0.2,4.4-0.3,6.7-0.5"/>
<path class="st3" d="M321.1,408.6c9-0.6,17.2-3.3,24.6-8.1c0.8-0.5,1.5-0.9,2.5-1.5c1.7,2.4,3.4,4.8,5.2,7.3
	c-11.2,7.9-23.9,11.3-37.7,11.6c-0.4-1-1.2-7.2-1-8.7c2-0.1,4-0.3,6.1-0.4"/>
<path class="st2" d="M323.1,431.8c10.5-0.4,20.3-2.8,29.2-7.5c0.9-0.5,1.8-0.9,3-1.5c1.9,2.4,3.8,4.9,5.8,7.5
	c-13.5,7.7-28.6,10.7-44.7,10.7c-0.4-1-1-7.2-0.7-8.8c2.3-0.1,4.7-0.2,7.1-0.3"/>
<line class="st0" x1="149" y1="394.5" x2="149" y2="429.3"/>
<path class="st0" d="M149,439"/>
<rect x="138.8" y="294.6" class="st3" width="8.6" height="8.6"/>
<rect x="138.8" y="397.1" class="st3" width="8.6" height="8.6"/>
<rect x="138.8" y="304.5" class="st3" width="8.6" height="8.6"/>
<rect x="138.8" y="314.4" class="st3" width="8.6" height="8.6"/>
<rect x="138.8" y="365.4" class="st3" width="8.6" height="8.6"/>
<rect x="138.8" y="355.7" class="st3" width="8.6" height="8.6"/>
<rect x="138.8" y="346" class="st3" width="8.6" height="8.6"/>
<rect x="138.8" y="406.6" class="st3" width="8.6" height="8.6"/>
<rect x="138.8" y="416.1" class="st3" width="8.6" height="8.6"/>
<rect x="178" y="443.2" class="st3" width="8.6" height="8.6"/>
<rect x="168.2" y="443.2" class="st2" width="8.6" height="8.6"/>
<rect x="158.4" y="443.2" class="st2" width="8.6" height="8.6"/>
<path class="st1" d="M161,439"/>
<rect x="178" y="453" class="st3" width="8.6" height="8.6"/>
<rect x="168.2" y="453" class="st3" width="8.6" height="8.6"/>
<rect x="158.4" y="453" class="st3" width="8.6" height="8.6"/>
<rect x="148.5" y="453" class="st3" width="8.6" height="8.6"/>
<path class="st0" d="M461.5,328.4v-34.8c0-0.8,0-0.8,0-0.8"/>
<line class="st0" x1="461.5" y1="397.5" x2="461.5" y2="429.6"/>
<line class="st0" x1="461.4" y1="346.4" x2="461.4" y2="380.2"/>
<rect x="462.8" y="297.3" class="st3" width="8.6" height="8.6"/>
<rect x="462.8" y="307.2" class="st3" width="8.6" height="8.6"/>
<rect x="462.8" y="317.1" class="st3" width="8.6" height="8.6"/>
<rect x="462.8" y="349.1" class="st3" width="8.6" height="8.6"/>
<rect x="462.8" y="359" class="st3" width="8.6" height="8.6"/>
<rect x="462.8" y="368.9" class="st3" width="8.6" height="8.6"/>
<rect x="462.8" y="399.6" class="st3" width="8.6" height="8.6"/>
<rect x="462.8" y="409.1" class="st3" width="8.6" height="8.6"/>
<rect x="462.8" y="418.7" class="st3" width="8.6" height="8.6"/>
<rect x="421.9" y="446.2" class="st3" width="8.6" height="8.6"/>
<rect x="431.6" y="446.2" class="st2" width="8.6" height="8.6"/>
<rect x="441.3" y="446.2" class="st2" width="8.6" height="8.6"/>
<rect x="421.9" y="455.6" class="st3" width="8.6" height="8.6"/>
<rect x="431.6" y="455.6" class="st3" width="8.6" height="8.6"/>
<rect x="441.3" y="455.6" class="st3" width="8.6" height="8.6"/>
<path class="st0" d="M496.7,446.9"/>
<rect x="450.8" y="455.6" class="st3" width="8.6" height="8.6"/>
<path class="st4" d="M134.8,342.2c0,2.6-0.2,2.8,2.4,2.9c2.6,0.1,5.1-0.2,7.7,0.2c1.3,0.2,2.6-1.4,2.7-1.9c0.6-2.1,2-1.6,3.3-1.6
	c0.4,0,0.9,0.2,1.3-0.4c0-4.3,0-8.8,0-13.3c-0.9-0.4-1.7-0.2-2.5-0.2c-0.8,0-1.4-0.1-1.7-1c-0.7-2.2-2.4-2.9-4.6-2.9
	c-2.7,0.1-5.4,0-8.4,0c0,1.3,0,2.5,0,3.6c0,0.6,0.2,1.3-0.3,1.7c-0.7,0.5-1.5,0.6-1.5,1.9c-0.1,2.5-0.1,5-0.2,7.4
	c0,0.4,0.3,0.6,0.7,0.7C135.5,339.8,134.8,341.2,134.8,342.2"/>
<path class="st0" d="M149,377.1c0-35.3,0-35.3,0-35.3"/>
<line class="st0" x1="149" y1="327.8" x2="149" y2="293.7"/>
<rect x="409.7" y="220.6" class="st3" width="8.6" height="8.6"/>
<rect x="409.7" y="230.6" class="st3" width="8.6" height="8.6"/>
<rect x="409.7" y="240.5" class="st3" width="8.6" height="8.6"/>
<rect x="419.9" y="226.3" class="st3" width="8.6" height="8.6"/>
<rect x="419.9" y="236.2" class="st3" width="8.6" height="8.6"/>
<rect x="419.9" y="246.1" class="st3" width="8.6" height="8.6"/>
<rect x="419.9" y="216.4" class="st3" width="8.6" height="8.6"/>
<rect x="185.5" y="224.5" class="st3" width="8.6" height="8.6"/>
<rect x="185.5" y="234.4" class="st3" width="8.6" height="8.6"/>
<rect x="185.5" y="244.3" class="st3" width="8.6" height="8.6"/>
<rect x="185.5" y="214.6" class="st3" width="8.6" height="8.6"/>
<rect x="195.2" y="229.4" class="st3" width="8.6" height="8.6"/>
<rect x="195.2" y="239.3" class="st3" width="8.6" height="8.6"/>
<rect x="195.2" y="219.5" class="st3" width="8.6" height="8.6"/>
<path class="st0" d="M554.1,458"/>
<path class="st0" d="M448.5,458"/>
<path class="st0" d="M556.3,458.5"/>
<path class="st3" d="M430.5,454.6"/>
<path class="st3" d="M431.8,452.3"/>
<line class="st0" x1="100.9" y1="489.3" x2="194.5" y2="489.3"/>
<rect x="229.9" y="498.3" transform="matrix(-1.836970e-16 1 -1 -1.836970e-16 736.7079 268.4251)" class="st2" width="8.6" height="8.6"/>
<rect x="229.9" y="488.5" transform="matrix(-1.836970e-16 1 -1 -1.836970e-16 726.9344 258.6516)" class="st2" width="8.6" height="8.6"/>
<rect x="229.9" y="478.7" transform="matrix(-1.836970e-16 1 -1 -1.836970e-16 717.161 248.8782)" class="st2" width="8.6" height="8.6"/>
<rect x="229.9" y="468.8" transform="matrix(-1.836970e-16 1 -1 -1.836970e-16 707.2278 238.9451)" class="st2" width="8.6" height="8.6"/>
<rect x="229.9" y="458.7" class="st2" width="8.6" height="8.6"/>
<rect x="229.9" y="448.9" transform="matrix(-1.836970e-16 1 -1 -1.836970e-16 687.3052 219.0224)" class="st2" width="8.6" height="8.6"/>
<rect x="229.9" y="439.1" transform="matrix(-1.836970e-16 1 -1 -1.836970e-16 677.5318 209.249)" class="st2" width="8.6" height="8.6"/>
<rect x="229.9" y="429.2" class="st2" width="8.6" height="8.6"/>
<rect x="229.9" y="577.3" transform="matrix(-1.836970e-16 1 -1 -1.836970e-16 815.7079 347.4251)" class="st3" width="8.6" height="8.6"/>
<rect x="229.9" y="567.5" transform="matrix(-1.836970e-16 1 -1 -1.836970e-16 805.9344 337.6516)" class="st2" width="8.6" height="8.6"/>
<rect x="229.9" y="557.7" transform="matrix(-1.836970e-16 1 -1 -1.836970e-16 796.161 327.8782)" class="st2" width="8.6" height="8.6"/>
<rect x="229.9" y="547.8" transform="matrix(-1.836970e-16 1 -1 -1.836970e-16 786.2278 317.9451)" class="st2" width="8.6" height="8.6"/>
<rect x="229.9" y="537.7" class="st2" width="8.6" height="8.6"/>
<rect x="229.9" y="527.9" transform="matrix(-1.836970e-16 1 -1 -1.836970e-16 766.3052 298.0224)" class="st2" width="8.6" height="8.6"/>
<rect x="229.9" y="518.1" transform="matrix(-1.836970e-16 1 -1 -1.836970e-16 756.5318 288.249)" class="st2" width="8.6" height="8.6"/>
<rect x="229.9" y="508.2" class="st2" width="8.6" height="8.6"/>
<rect x="229.9" y="626.7" transform="matrix(-1.836970e-16 1 -1 -1.836970e-16 865.1105 396.8277)" class="st3" width="8.6" height="8.6"/>
<rect x="229.9" y="616.9" transform="matrix(-1.836970e-16 1 -1 -1.836970e-16 855.3371 387.0543)" class="st3" width="8.6" height="8.6"/>
<rect x="229.9" y="607" transform="matrix(-1.836970e-16 1 -1 -1.836970e-16 845.4039 377.1212)" class="st3" width="8.6" height="8.6"/>
<rect x="229.9" y="596.8" class="st3" width="8.6" height="8.6"/>
<rect x="229.9" y="587.1" transform="matrix(-1.836970e-16 1 -1 -1.836970e-16 825.4813 357.1985)" class="st3" width="8.6" height="8.6"/>
<rect x="450.7" y="418.6" class="st2" width="8.6" height="8.6"/>
<rect x="440.9" y="418.6" class="st2" width="8.6" height="8.6"/>
<rect x="431.1" y="418.6" class="st2" width="8.6" height="8.6"/>
<rect x="421.2" y="418.6" class="st2" width="8.6" height="8.6"/>
<rect x="411" y="418.6" class="st2" width="8.6" height="8.6"/>
<rect x="401.3" y="418.6" class="st2" width="8.6" height="8.6"/>
<rect x="391.5" y="418.6" class="st2" width="8.6" height="8.6"/>
<rect x="381.6" y="418.6" class="st2" width="8.6" height="8.6"/>
<rect x="437.5" y="429.4" class="st3" width="8.6" height="8.6"/>
<rect x="427.6" y="429.4" class="st3" width="8.6" height="8.6"/>
<rect x="249.7" y="626.7" class="st3" width="43.6" height="7.5"/>
<rect x="249.5" y="637" class="st3" width="43.6" height="7.5"/>
<rect x="249.5" y="647.3" class="st3" width="43.6" height="7.5"/>
<rect x="315.7" y="626.7" class="st3" width="43.6" height="7.5"/>
<rect x="315.5" y="637" class="st3" width="43.6" height="7.5"/>
<rect x="315.5" y="647.3" class="st3" width="43.6" height="7.5"/>
<path class="st0" d="M449,263.3c-14.6,0-14.1,0-14.1,0s-0.3-4.8,2.6-9.8c4.3-7.3,11.6-5.9,11.6-5.9V263.3L449,263.3"/>
<path class="st0" d="M432.1,263.3"/>
<rect x="404.8" y="295.3" class="st3" width="8.6" height="8.6"/>
<rect x="404.8" y="305.2" class="st3" width="8.6" height="8.6"/>
<rect x="395.3" y="295.3" class="st3" width="8.6" height="8.6"/>
<rect x="395.3" y="305.2" class="st3" width="8.6" height="8.6"/>
<rect x="385.6" y="295.3" class="st2" width="8.6" height="8.6"/>
<rect x="385.6" y="305.2" class="st2" width="8.6" height="8.6"/>
<path class="st0" d="M412,741.7"/>
<path class="st0" d="M221.4,703.3c0,18.6,0,18.6,0,18.6"/>
<path class="st0" d="M209.8,706.1c0.9,2.1-0.2,7-0.2,7l-4-0.1"/>
<path class="st0" d="M197.4,692.1"/>
<path class="st1" d="M347.8,727.9"/>
<path class="st0" d="M347.8,727.9"/>
<path class="st0" d="M208.2,152.4"/>
<path class="st0" d="M211.1,154.4"/>
<path class="st0" d="M483,282.7"/>
<text transform="matrix(0 -1 1 0 121.0605 397.7021)" class="st5 st6">Empore links</text>
<text transform="matrix(0 1 -1 0 488.4663 334.6249)" class="st5 st6">Empore rechts</text>
<text transform="matrix(1 0 0 1 301.6007 417.667)" class="st5 st7">1</text>
<text transform="matrix(1 0 0 1 301.6005 428.8897)" class="st5 st7">2</text>
<text transform="matrix(1 0 0 1 301.6007 440.251)" class="st5 st7">3</text>
<text transform="matrix(1 0 0 1 301.6008 451.8453)" class="st5 st7">4</text>
<text transform="matrix(1 0 0 1 301.601 465.4972)" class="st5 st7">5</text>
<text transform="matrix(1 0 0 1 301.6005 478.08)" class="st5 st7">6</text>
<text transform="matrix(1 0 0 1 301.6007 491.7601)" class="st5 st7">7</text>
<text transform="matrix(1 0 0 1 301.6005 506.9239)" class="st5 st7">8</text>
<text transform="matrix(1 0 0 1 301.6005 519.3711)" class="st5 st7">9</text>
<text transform="matrix(1 0 0 1 299.0358 532.3201)" class="st5 st7">10</text>
<text transform="matrix(1 0 0 1 299.0359 546.2209)" class="st5 st7">11</text>
<text transform="matrix(1 0 0 1 299.036 558.7354)" class="st5 st7">12</text>
<text transform="matrix(1 0 0 1 299.036 571.7928)" class="st5 st7">13</text>
<text transform="matrix(1 0 0 1 299.0359 586.0797)" class="st5 st7">14</text>
<text transform="matrix(1 0 0 1 299.0357 598.2534)" class="st5 st7">15</text>
<text transform="matrix(1 0 0 1 299.0359 610.5598)" class="st5 st7">16</text>
<text transform="matrix(1 0 0 1 299.0359 623.0499)" class="st5 st7">17</text>
<text transform="matrix(1 0 0 1 299.036 634.5986)" class="st5 st7">18</text>
<text transform="matrix(0.9997 2.519000e-02 -2.519000e-02 0.9997 298.9515 645.8643)" class="st5 st7">19</text>
<text transform="matrix(1 0 0 1 299.0359 656.6398)" class="st5 st7">20</text>
<text transform="matrix(1 0 0 1 231 436.2645)" class="st5 st8">A</text>
<text transform="matrix(1 0 0 1 231 446.1959)" class="st5 st8">B</text>
<text transform="matrix(1 0 0 1 231 456.2838)" class="st5 st8">C</text>
<text transform="matrix(1 0 0 1 231 466.077)" class="st5 st8">D</text>
<text transform="matrix(1 0 0 1 232 476.1419)" class="st5 st8">E</text>
<text transform="matrix(1 0 0 1 232 486.6493)" class="st5 st8">F</text>
<text transform="matrix(1 0 0 1 231 496.0799)" class="st5 st8">G</text>
<text transform="matrix(1 0 0 1 231 505.5544)" class="st5 st8">H</text>
<text transform="matrix(1 0 0 1 233 515.5421)" class="st5 st8">I</text>
<text transform="matrix(1 0 0 1 232 525.02)" class="st5 st8">J</text>
<text transform="matrix(1 0 0 1 232 535.7935)" class="st5 st8">K</text>
<text transform="matrix(1 0 0 1 232 544.5669)" class="st5 st8">L</text>
<text transform="matrix(1 0 0 1 231 555.5198)" class="st5 st8">M</text>
<text transform="matrix(1 0 0 1 231 564.6493)" class="st5 st8">N</text>
<text transform="matrix(1 0 0 1 231 575.4227)" class="st5 st8">O</text>
<text transform="matrix(1 0 0 1 232 585.1961)" class="st5 st8">P</text>
<text transform="matrix(1 0 0 1 231 594.7061)" class="st5 st8">Q</text>
<text transform="matrix(1 0 0 1 232 604.743)" class="st5 st8">R</text>
<text transform="matrix(1 0 0 1 232 614.5507)" class="st5 st8">S</text>
<text transform="matrix(1 0 0 1 232 624.4796)" class="st5 st8">T</text>
<text transform="matrix(1 0 0 1 231 634.5988)" class="st5 st8">U</text>
<g>
	<g>
		<rect x="220.4" y="416.7" class="st2" width="8.6" height="8.6"/>
		<text transform="matrix(1 0 0 1 221.6399 424.5)" class="st5 st7">A</text>
	</g>
	<g>
		<rect x="210.6" y="416.7" class="st2" width="8.6" height="8.6"/>
		<text transform="matrix(1 0 0 1 212.0753 424.2939)" class="st5 st7">B</text>
	</g>
	<g>
		<rect x="200.9" y="416.7" class="st2" width="8.6" height="8.6"/>
		<text transform="matrix(1 0 0 1 202.2418 424.2939)" class="st5 st7">C</text>
	</g>
	<g>
		<rect x="190.9" y="416.7" class="st2" width="8.6" height="8.6"/>
		<text transform="matrix(1 0 0 1 191.9496 424.2939)" class="st5 st7">D</text>
	</g>
	<g>
		<rect x="180.8" y="416.7" class="st2" width="8.6" height="8.6"/>
		<text transform="matrix(1 0 0 1 182.24 424.2944)" class="st5 st7">E</text>
	</g>
	<g>
		<rect x="171" y="416.7" class="st2" width="8.6" height="8.6"/>
		<text transform="matrix(1 0 0 1 172.4666 424.2938)" class="st5 st7">F</text>
	</g>
	<g>
		<rect x="161.2" y="416.7" class="st2" width="8.6" height="8.6"/>
		<text transform="matrix(1 0 0 1 162.3598 424.2942)" class="st5 st7">G</text>
	</g>
	<g>
		<rect x="151.3" y="416.7" class="st2" width="8.6" height="8.6"/>
		<text transform="matrix(1 0 0 1 152.2622 424.2943)" class="st5 st7">H</text>
	</g>
</g>
<g>
	<rect x="175.4" y="427.7" class="st3" width="8.6" height="8.6"/>
	<text transform="matrix(1 0 0 1 178.5385 435.4164)" class="st5 st7">I</text>
</g>
<g>
	<rect x="165.4" y="427.7" class="st3" width="8.6" height="8.6"/>
	<text transform="matrix(1 0 0 1 167.8 435.416)" class="st5 st7">J</text>
</g>
<rect x="218.4" y="293.9" class="st2" width="8.6" height="8.6"/>
<text transform="matrix(1 0 0 1 219.8101 301.5554)" class="st5 st7">K</text>
<rect x="218.4" y="303.8" class="st2" width="8.6" height="8.6"/>
<text transform="matrix(1 0 0 1 220.3936 311.3601)" class="st5 st7">L</text>
<g>
	<rect x="208.9" y="293.9" class="st3" width="8.6" height="8.6"/>
	<text transform="matrix(1 0 0 1 209.2035 301.5556)" class="st5 st7">M</text>
</g>
<g>
	<rect x="208.9" y="303.8" class="st3" width="8.6" height="8.6"/>
	<text transform="matrix(1 0 0 1 210.0368 311.3604)" class="st5 st7">N</text>
</g>
<g>
	<rect x="199.2" y="293.9" class="st3" width="8.6" height="8.6"/>
	<text transform="matrix(1 0 0 1 199.9086 301.5554)" class="st5 st7">O</text>
</g>
<g>
	<rect x="199.2" y="303.8" class="st3" width="8.6" height="8.6"/>
	<text transform="matrix(1 0 0 1 200.9086 311.3604)" class="st5 st7">P</text>
</g>
<text transform="matrix(1 0 0 1 153.7164 409.1402)" class="st5 st6">Seitenschiff links</text>
<text transform="matrix(1 0 0 1 364.9201 410.5391)" class="st5 st6">Seitenschiff rechts</text>
<rect x="84.7" y="549" transform="matrix(-1.836970e-16 1 -1 -1.836970e-16 642.3447 464.3007)" class="st2" width="8.6" height="8.6"/>
<text transform="matrix(1 0 0 1 97.4294 557.6071)" class="st5 st7"> 30,-</text>
<rect x="84.7" y="560.9" transform="matrix(-1.836970e-16 1 -1 -1.836970e-16 654.2394 476.1954)" class="st9" width="8.6" height="8.6"/>
<rect x="84.7" y="584.7" transform="matrix(-1.836970e-16 1 -1 -1.836970e-16 678.0287 499.9847)" class="st10" width="8.6" height="8.6"/>
<rect x="84.7" y="572.8" transform="matrix(-1.836970e-16 1 -1 -1.836970e-16 666.134 488.0901)" class="st11" width="8.6" height="8.6"/>
<g>
	
		<rect x="84.7" y="537.1" transform="matrix(-1.836970e-16 1 -1 -1.836970e-16 630.45 452.406)" class="st12" width="8.6" height="8.6"/>
	<text transform="matrix(1 0 0 1 97.4294 545.7119)" class="st5 st7"> 35,-</text>
</g>
<text transform="matrix(1 0 0 1 97.4292 569.5012)" class="st5 st7"> 27,-</text>
<text transform="matrix(1 0 0 1 97.4291 581.396)" class="st5 st7"> 25,-</text>
<text transform="matrix(1 0 0 1 97.4296 593.2905)" class="st5 st7"> 20,-</text>
<rect x="371.2" y="498" transform="matrix(-1.836970e-16 1 -1 -1.836970e-16 877.7411 126.8247)" class="st2" width="8.6" height="8.6"/>
<rect x="371.2" y="488.2" transform="matrix(-1.836970e-16 1 -1 -1.836970e-16 867.9677 117.0513)" class="st2" width="8.6" height="8.6"/>
<rect x="371.2" y="478.5" transform="matrix(-1.836970e-16 1 -1 -1.836970e-16 858.1942 107.2778)" class="st2" width="8.6" height="8.6"/>
<rect x="371.2" y="468.5" transform="matrix(-1.836970e-16 1 -1 -1.836970e-16 848.261 97.3447)" class="st2" width="8.6" height="8.6"/>
<rect x="371.2" y="458.4" class="st2" width="8.6" height="8.6"/>
<rect x="371.2" y="448.6" transform="matrix(-1.836970e-16 1 -1 -1.836970e-16 828.3384 77.4221)" class="st2" width="8.6" height="8.6"/>
<rect x="371.2" y="438.8" transform="matrix(-1.836970e-16 1 -1 -1.836970e-16 818.565 67.6486)" class="st2" width="8.6" height="8.6"/>
<rect x="371.2" y="428.9" class="st2" width="8.6" height="8.6"/>
<rect x="371.2" y="577" transform="matrix(-1.836970e-16 1 -1 -1.836970e-16 956.7411 205.8247)" class="st3" width="8.6" height="8.6"/>
<rect x="371.2" y="567.2" transform="matrix(-1.836970e-16 1 -1 -1.836970e-16 946.9677 196.0513)" class="st2" width="8.6" height="8.6"/>
<rect x="371.2" y="557.5" transform="matrix(-1.836970e-16 1 -1 -1.836970e-16 937.1942 186.2778)" class="st2" width="8.6" height="8.6"/>
<rect x="371.2" y="547.5" transform="matrix(-1.836970e-16 1 -1 -1.836970e-16 927.261 176.3447)" class="st2" width="8.6" height="8.6"/>
<rect x="371.2" y="537.4" class="st2" width="8.6" height="8.6"/>
<rect x="371.2" y="527.6" transform="matrix(-1.836970e-16 1 -1 -1.836970e-16 907.3384 156.4221)" class="st2" width="8.6" height="8.6"/>
<rect x="371.2" y="517.8" transform="matrix(-1.836970e-16 1 -1 -1.836970e-16 897.565 146.6486)" class="st2" width="8.6" height="8.6"/>
<rect x="371.2" y="507.9" class="st2" width="8.6" height="8.6"/>
<rect x="371.2" y="626.4" transform="matrix(-1.836970e-16 1 -1 -1.836970e-16 1006.1437 255.2274)" class="st3" width="8.6" height="8.6"/>
<rect x="371.2" y="616.6" transform="matrix(-1.836970e-16 1 -1 -1.836970e-16 996.3703 245.4539)" class="st3" width="8.6" height="8.6"/>
<rect x="371.2" y="606.7" transform="matrix(-1.836970e-16 1 -1 -1.836970e-16 986.4371 235.5208)" class="st3" width="8.6" height="8.6"/>
<rect x="371.2" y="596.5" class="st3" width="8.6" height="8.6"/>
<rect x="371.2" y="586.8" transform="matrix(-1.836970e-16 1 -1 -1.836970e-16 966.5145 215.5981)" class="st3" width="8.6" height="8.6"/>
<text transform="matrix(1 0 0 1 372.6512 435.9814)" class="st5 st8">A</text>
<text transform="matrix(1 0 0 1 372.9656 445.9125)" class="st5 st8">B</text>
<text transform="matrix(1 0 0 1 372.7953 456.0003)" class="st5 st8">C</text>
<text transform="matrix(1 0 0 1 372.4081 465.7935)" class="st5 st8">D</text>
<text transform="matrix(1 0 0 1 373.1913 475.8583)" class="st5 st8">E</text>
<text transform="matrix(1 0 0 1 373.191 485.7825)" class="st5 st8">F</text>
<text transform="matrix(1 0 0 1 372.4979 495.7963)" class="st5 st8">G</text>
<text transform="matrix(1 0 0 1 372.4711 505.2708)" class="st5 st8">H</text>
<text transform="matrix(1 0 0 1 374.3295 515.2585)" class="st5 st8">I</text>
<text transform="matrix(1 0 0 1 373.74 525.2781)" class="st5 st8">J</text>
<text transform="matrix(1 0 0 1 372.9216 535.0933)" class="st5 st8">K</text>
<text transform="matrix(1 0 0 1 373.3169 544.5667)" class="st5 st8">L</text>
<text transform="matrix(1 0 0 1 371.7869 554.6946)" class="st5 st8">M</text>
<text transform="matrix(1 0 0 1 372.4978 564.824)" class="st5 st8">N</text>
<text transform="matrix(1 0 0 1 372.3167 574.5823)" class="st5 st8">O</text>
<text transform="matrix(1 0 0 1 373.3166 584.4957)" class="st5 st8">P</text>
<text transform="matrix(1 0 0 1 372.317 594.0059)" class="st5 st8">Q</text>
<text transform="matrix(1 0 0 1 372.9659 603.8761)" class="st5 st8">R</text>
<text transform="matrix(1 0 0 1 373.3168 614.2671)" class="st5 st8">S</text>
<text transform="matrix(1 0 0 1 373.3168 624.196)" class="st5 st8">T</text>
<text transform="matrix(1 0 0 1 372.6516 633.8986)" class="st5 st8">U</text>
<g>
	<text transform="matrix(-0.9999 -9.879999e-03 -9.879999e-03 0.9999 388.7418 426.228)" class="st5 st7">A</text>
	<text transform="matrix(1 0 0 1 392.9441 426.2043)" class="st5 st7">B</text>
	<text transform="matrix(1 0 0 1 402.2153 426.2052)" class="st5 st7">C</text>
	<text transform="matrix(1 0 0 1 411.9442 426.2044)" class="st5 st7">D</text>
	<text transform="matrix(1 0 0 1 422.7775 426.2049)" class="st5 st7">E</text>
	<text transform="matrix(1 0 0 1 432.8816 426.2052)" class="st5 st7">F</text>
	<text transform="matrix(1 0 0 1 441.965 426.2349)" class="st5 st7">G</text>
	<text transform="matrix(1 0 0 1 451.7567 426.2047)" class="st5 st7">H</text>
</g>
<text transform="matrix(1 0 0 1 430.7203 437.1872)" class="st5 st7">I</text>
<text transform="matrix(1 0 0 1 439.7516 437.0622)" class="st5 st7">J</text>
<text transform="matrix(1 0 0 1 277.0672 399.5639)" class="st5 st6">Hauptschiff</text>
<text transform="matrix(1 0 0 1 262.6796 667.4396)" class="st5 st6">links</text>
<text transform="matrix(1 0 0 1 321.5187 667.3202)" class="st5 st6">rechts</text>
<text transform="matrix(1 0 0 1 387 302.9375)" class="st5 st7">K</text>
<text transform="matrix(1 0 0 1 387.375 312.8125)" class="st5 st7">L</text>
<text transform="matrix(1 0 0 1 395.75 302.9375)" class="st5 st7">M</text>
<text transform="matrix(1 0 0 1 396.25 312.8125)" class="st5 st7">N</text>
<text transform="matrix(1 0 0 1 405.6875 302.9375)" class="st5 st7">O</text>
<text transform="matrix(1 0 0 1 406.6875 313.125)" class="st5 st7">P</text>
<text transform="matrix(1 0 0 1 236.0801 321.1451)" class="st5 st7">1</text>
<text transform="matrix(1 0 0 1 223.7676 321.1451)" class="st5 st7">2</text>
<text transform="matrix(1 0 0 1 209.4551 321.1451)" class="st5 st7">3</text>
<text transform="matrix(1 0 0 1 196.8926 321.1452)" class="st5 st7">4</text>
<text transform="matrix(1 0 0 1 185.2051 321.1452)" class="st5 st7">5</text>
<text transform="matrix(1 0 0 1 171.4551 321.1453)" class="st5 st7">6</text>
<text transform="matrix(1 0 0 1 366.4551 323.3951)" class="st5 st7">1</text>
<text transform="matrix(1 0 0 1 382.8301 323.3951)" class="st5 st7">2</text>
<text transform="matrix(1 0 0 1 396.8301 323.3951)" class="st5 st7">3</text>
<text transform="matrix(1 0 0 1 411.4551 323.3951)" class="st5 st7">4</text>
<text transform="matrix(1 0 0 1 424.3301 323.3951)" class="st5 st7">5</text>
<text transform="matrix(1 0 0 1 435.9551 323.3951)" class="st5 st7">6</text>
<text transform="matrix(0 -1 1 0 182.4799 253.3604)" class="st5 st6">Loge links</text>
<text transform="matrix(0 1 -1 0 430.0796 197.3604)" class="st5 st6">Loge rechts</text>
<text transform="matrix(1 0 0 1 291.2197 224.4762)" class="st5 st6">CHOR</text>
<text transform="matrix(1 0 0 1 277.0672 277.4399)" class="st5 st6">ORCHESTER</text>
</svg>
